<?xml version='1.0' encoding='utf-8'?>
<svg xmlns:xlink="http://www.w3.org/1999/xlink" xmlns="http://www.w3.org/2000/svg" version="1.1" id="Layer_1" x="0px" y="0px" viewBox="0 0 2000 2000" enable-background="new 0 0 2000 2000"> <radialGradient id="SVGID_1_" cx="1000" cy="1000" r="1000" gradientUnits="userSpaceOnUse"> <stop offset="0.305" style="stop-color:#5966AF;stop-opacity:0.6512"/> <stop offset="0.3872" style="stop-color:#4E589F;stop-opacity:0.6866"/> <stop offset="0.5529" style="stop-color:#3E438B;stop-opacity:0.7578"/> <stop offset="0.7137" style="stop-color:#33347E;stop-opacity:0.8269"/> <stop offset="0.8657" style="stop-color:#2C2B76;stop-opacity:0.8923"/> <stop offset="1" style="stop-color:#2A2874;stop-opacity:0.95"/> </radialGradient> <rect fill="url(#SVGID_1_)" width="2000" height="2000"/> <g> <defs> <rect id="SVGID_2_" width="2000" height="2000"/> </defs> <clipPath id="SVGID_3_"> <use xlink:href="#SVGID_2_" overflow="visible"/> </clipPath> <g clip-path="url(#SVGID_3_)"> <g> <path fill="#D58028" d="M1560.9,1928.6c-1-41.3-5.6-82.5-13.6-123c-6.4-32.4-14.8-64.7-26.4-95.6c-6.3-16.9-13.9-32.8-24.4-47.4 c-9.1-12.7-19.1-24.8-26.6-38.6c-4.9-9.1-9.6-17.6-16.1-25.7c-6.2-7.7-14.7-13.8-23.5-18.2c-5.8-2.9-11.6-5.7-17.5-8.5 c-7.3-10.4-16.8-19.2-28-26.4c-16-10.3-34.7-16-52.4-22.6c-2.3-0.9-4.5-1.7-6.8-2.6c-0.6-0.2-1.1-0.5-1.7-0.7 c-2.8-1.2-2.2-0.9,1.7,0.7c-0.4,0.5-12-5.5-13.2-6.1c-7.6-3.7-15.1-7.8-22.4-12.1c-4.2-2.5-8.3-5.1-12.3-7.8c-1.5-1-3-2-4.5-3.1 c-0.6-0.4-1.1-0.8-1.7-1.2c-1.1-1-2.5-2-3.6-3c-0.5-0.4-0.9-0.9-1.4-1.4c-0.2-0.9-0.5-2.1-0.8-3.2c-0.7-9.5-1-19-4.4-28 c-4.4-11.7-10.3-21.2-18.4-30.7c-5-5.8-10.7-11.1-16.8-15.9c13-7.4,25.6-15.6,37.5-24.7c0.3-0.2,0.6-0.4,0.8-0.6 c1.7-0.3,3.4-0.6,5.1-1c35.9-6.9,71.5-20.3,104-36.9c62.5-32,105-91.2,124.5-157.8c11.8-40.2,15.5-82.9,14.3-124.6 c-0.2-7-2.8-13.5-7.2-18.4c0-0.3,0-0.6,0-1c-0.4-9.5-0.7-19.1-1.1-28.6c-0.3-6.8-3-13.5-7.4-18.6c-0.6-11.9-1.8-23.7-6.6-35.2 c-2.8-6.7-6.8-12.8-11.6-18c-4.7-19.8-14.9-37.8-25.4-55.1c-11.4-19-22.8-37.9-34.3-56.9c-6.1-10.1-12.8-20-20.7-28.8 c-3-3.3-6.3-6.3-9.7-9.1c-6.8-10.3-13.4-20.7-19.6-31.4c-2.7-4.7-5.6-9.2-8.8-13.4c-2.1-4.7-5.5-8.5-9.7-11.2 c-4.4-4.3-9.2-8.1-14.6-11.2c0-0.5,0.1-0.9,0.1-1.4c0,0.4,1.2-6.6,1.4-7.5c0.6-3.1,1.4-6.2,2.2-9.2c0.6-2.1,1.2-4.2,1.9-6.3 c-1.7-1-2.3-2.9-2-4.8c0.7-4.2,2.1-8.7,6-11c1.3-0.8,2.8-1.3,4.3-1.6c2.9-3.8,6.9-6.8,11.4-8.3c1.4-4,2-8.4,1.5-12.6 c0.3-0.4,0.5-0.7,0.8-1.1c0.7-0.3,1.4-0.6,2-1c27.9-13,56.8-24.1,79-46.4c14.7-14.8,25.2-32.8,32-52.5c2.6-7.6,0.6-16.8-4.2-23.7 c2.1-7.1,4.1-14.1,5.3-21.4c3.4-21.4,1-43.3-11.6-61.6c-10.6-15.5-25.1-28.2-42.1-36.2c-19.7-9.3-40.2-13.1-61.9-14.9 c-20.3-1.6-40.6-1.4-60.8-3.7c-14.5-2.2-28.9-5.4-43-9.8c-5.6-1.7-11.2-3.7-16.6-5.8c-3-3.7-6.1-7.4-9.3-10.9 c-15.2-16.5-33.5-27.6-54.4-35.3c-39.5-14.5-82.8-20.9-124.8-20.1c-44.8,0.9-89.1,10.2-130.3,27.8c-19.4,8.3-36.7,19.8-54.4,31 c-2,1.3-4,2.5-6.1,3.8c-36.1,13-70.2,30.9-100.9,54.2c-2.5,1.1-4.9,2.3-7.4,3.4c-5,2.2-9.9,4.4-14.9,6.5c-1.2,0.5-2.4,1-3.6,1.5 c-2.8,1.2-5.6,2.3-8.5,3.4c-1.5,0.6-3,1.2-4.5,1.8c-18.5-14.3-40.2-20.9-63.5-23.3c-10.6-1.1-21.3-1.2-31.9-0.7 c-4.9-3.4-9.9-6.4-15.2-8.7c-9.5-4.2-19.1-6.7-29.7-6.1c-9.3,0.6-18.4,2.6-27.4,4.6c-15.3,3.5-30.5,7.4-45.5,11.8 c-29.2,8.4-58.8,18.2-79,42.2c-19.8,23.5-30.5,52.2-32.2,82.8c-0.6,9.9-0.1,19.8,1.3,29.6c0.3,7,1,14.1,2.3,21.2 c7.1,39.9,31.4,75.9,63.1,100.6c6.2,11.8,16.3,21.2,27.9,27.7c10.5,6,22.1,10.5,33.3,15c10.3,4.1,20.8,7.7,31.4,10.5 c22.4,5.9,46.4,9.2,69.6,7.3c13.8-1.1,27.3-3.6,40.6-7.6c10.9-3.3,21.7-7.2,32.9-9.3c7.7-0.5,15.1,0.4,22.9,1.2 c-12.6,56.1,3.6,113.6-2.8,170.3c-9.1,58.8-39.9,113.4-45.3,172.4c-6.8,5-10.9,13-11.8,22.5c-3.8,41.3,9.4,83.4,28.4,119.7 c7.8,14.9,17.8,28.5,28.8,41.1c0.9,7,1.9,13.9,3,20.8c0.4,2.2,0.8,4.4,1.2,6.7c0.6,0.3,1.2,0.8,1.6,1.5c2.2,4,4.2,8,6.2,12.1 c1.8-0.9,4.2-0.7,5.8,1.4c4.6,6.3,10.3,12.1,13.1,19.6c1.3,3.5,1.5,6.8,0.8,10c1.2,0.7,2.5,1.4,3.7,2.1c-0.9,1.8-1.7,3.6-2.4,5.5 c-2.3,6-2.6,13-2.8,19.8c-0.2,0.3-0.4,0.6-0.6,0.9c-5.3,8.6-7.4,18.2-8.8,28c-3.8,27.7-7.5,55.4-11.1,83.2 c-26.9,21.8-51,46.8-72.2,74.1c-22.9,13.5-45.8,27.2-68.1,41.6c-37.4,24.2-71.7,52.1-104.2,82.4c-1.4,1.3-2.9,2.7-4.3,4 c-14.9,8.6-29.5,17.7-43.5,27.8c-58,41.4-108.2,97.1-124.3,168.4c-9.6,42.5-8.1,87.6,5.6,129c4.6,13.9,19.5,24.4,34.4,19.6 c3.3-1.1,6.3-2.6,8.8-4.5c0.6,3.1,1.3,6.3,1.9,9.4c4.5,21.5,10,42.8,15.6,64c3.8,14.2,20.1,24.2,34.4,19.6 c14.6-4.7,23.6-19.3,19.6-34.4c-4.4-16.7-8.7-33.4-12.6-50.3c48.6,9.6,97.4,17.8,146.8,21.4c69.1,5.1,138.5,0.3,207.6-3.4l415-22 c33.3-1.8,66.7-3.8,100.1-3.8c16.8,0,33.6,0.5,50.4,1.7c7.8,0.6,15.7,1.4,23.4,2.4c3.3,0.4,1,0.2,0.3,0.1c2.1,0.3,4.1,0.6,6.2,1 c4.7,0.8,9.3,1.6,13.9,2.5c1.7,0.3,3.4,0.7,5.2,1.1c1.2,9.2,3.8,18.1,11,24.7c6.4,5.8,13.5,9.4,22.1,10.6 c8.2,1.1,17.4,0.1,24.5-4.6c2.6-2,5.2-4,7.8-6c4-4.1,7-8.8,8.9-14.1c0.1,0,0.1,0,0.2,0c16.2-1.7,31.4-6.8,43.5-18.1 c0.8-0.7,1.5-1.5,2.2-2.2c4.5,3.9,9.5,6.4,15.5,7.2c13.7,1.8,26.9-6.5,30.7-20.1c6.4-22.4,10.2-45.6,11.9-68.8 C1569.4,1940.9,1566.1,1933.9,1560.9,1928.6z"/> </g> <g> <path fill="#C16C29" d="M575.5,1750.6C575.5,1750.6,575.5,1750.6,575.5,1750.6C580.2,1745,576.6,1749.2,575.5,1750.6z"/> <path fill="#C16C29" d="M784.9,1877.1c-1.4-68.9-21.4-134.7-48.5-197.5c-14.4-33.4-31.2-65.8-49-97.6c-4.6-8.2-13-13.9-22.1-16.1 c-6.5-2.5-13.8-3-21.2-1.2c-22.9,5.7-42.3,19.6-59.4,35.5c-13,12.1-24.9,25.2-38.7,36.5c-25.9,19-55.2,32.4-82.2,49.5 c-29.5,18.7-56.8,41.6-79.6,68.1c-25,29.1-48.1,62.1-57,100c-4.7,19.9-6.4,40.7-7.5,61.1c-1,18.5-1.3,36.9-0.8,55.4 c1.1,44.8,6.3,89.7,15.1,133.7c1.6,8.1,8.9,16.5,15.9,20.6c7.4,4.3,18.3,6.2,26.6,3.5c5.4-1.7,10-4.4,13.7-7.8 c0.9,0.7,1.9,1.4,2.8,1.9c6.1,3.6,15.1,5.1,22,2.9c1.7-0.6,3.3-1.2,4.9-2c2.3,0.6,4.6,0.9,6.8,0.8c3.6-0.2,7.2-1,10.7-2.5 c1.5,1.3,3,2.4,4.4,3.2c6.1,3.6,15.1,5.1,22,2.9c6.9-2.2,13.5-6.5,17-13.1c3.6-6.7,4-12.9,3.1-20.2c0.1,0.9,0.2,1.8,0.4,2.6 c-5.5-41.4-5.4-83.3-0.3-124.6c3.1-21.8,7.6-43.4,13.6-64.7c3.2-11.4,6.8-22.7,10.8-33.9c1.8-5.1,3.7-10.1,5.7-15.1 c1-2.4,2-4.9,3-7.3c0.5-1.3,1.1-2.5,1.6-3.8c9.3-21.2,20.1-41.7,32.4-61.4c6.2-10.1,12.9-19.9,19.8-29.5c1.6-2.2,3.2-4.3,4.8-6.4 c-0.2,0.2-0.3,0.4-0.5,0.6c0.7-0.8,1.3-1.7,2-2.5c3.7-4.7,7.4-9.2,11.3-13.8c20.2-23.7,42.4-45.7,59.9-71.7 c0.9-1.4,1.7-2.9,2.3-4.5c9.6,18.6,18.6,37.5,26.9,56.7c16.6,40,29.6,81.6,35.9,124.6c3.5,30,3.4,60-0.3,90 c-6.7,46.9-17.8,93.2-27.2,139.6c-1.9,9.1-1.3,18.3,3.5,26.6c4.2,7.2,12.4,14,20.6,15.9c17.2,3.9,38.6-5.2,42.4-24.1 c7-34.3,14.2-68.6,20.9-102.9C780.1,1949.6,785.7,1913.4,784.9,1877.1z"/> </g> <path fill="#C16C29" d="M1550.3,1799.6c-20.9-19.4-41.8-38.7-62.8-58.1c-7.2-6.7-14.3-13.6-21.6-20.1c-1.5-9.8-7.1-18.8-16.4-24.6 c-2.7-1.7-5.4-3.5-8-5.4c-6.6-5.5-12.6-11.5-18-18.1c-5.5-7.6-10.2-15.7-14.1-24.2c-3.3-8.8-5.8-17.8-7.4-27 c-0.9-9.1-0.9-18.2,0.1-27.3c0.9-8.2-4.5-18.8-10.1-24.4c-0.5-0.5-1.1-1.1-1.7-1.6c0-0.6,0-1.1,0-1.7c0.2-18.1-16-35.3-34.5-34.5 c-5.5,0.2-10.8,1.7-15.4,4c-16.1-1.3-33.7,7.8-37.3,24.9c-5.1,24.3-10.4,48.7-19.5,71.9c-4.5,9.9-9.8,19.4-16.2,28.3 c-6.1,7.3-12.9,13.9-20.2,20c-12.7,9.3-26.5,16.9-40.9,23.3c-27.6,11-56.6,17.9-85.9,22.2c-29.5,3.6-59.1,4.9-88.8,5.4 c-28.8,0.4-57.7,0.7-86.3-2.7c-16.1-2.5-31.8-6.3-47-12.1c-10.2-4.7-19.8-10.3-28.8-16.8c-12.1-9.9-22.9-21.2-32.7-33.4 c-11.4-15.3-21.4-31.5-30.7-48.2c-9.5-17-19.2-34.2-27.2-52c-2.1-5.4-3.8-10.9-4.9-16.6c-0.2-3.5-0.2-7,0.1-10.6 c1.7-8.8,4.5-17.3,7.9-25.7c8.8-20.2,18.6-40,25.1-61.2c0.8-2.7,1.6-5.5,2.4-8.3c14.3,9,29.5,16.5,45.6,22.9 c26.3,10.4,54,15.7,82,18.6c60.8,6.3,122.8-3.3,182.6-14c32.6-5.8,65-12.8,97.2-20.9c17.5-4.4,29.7-25,24.1-42.4 c-0.7-2.1-1.6-4.2-2.6-6.1c0.1,0,0.1,0,0.2,0c12-2.6,23.5-6.9,35-11.1l71.5-26.1c7.3-2.7,13.5-8.5,15.8-15.7 c37.5-16.1,71.3-40.8,98.2-71.4c5.2-5.9,5.8-14.7,0-20.5c-5.3-5.3-15.3-5.9-20.5,0c-25.1,28.6-54.8,50.3-89.7,65.7 c-4.7-2.6-10.3-3.5-15.7-1.5c-22.6,8.2-45.2,16.5-67.8,24.7c-10.7,3.9-21.3,8-32.3,10.9c-2.7,0.7-5.4,1.4-8.2,1.9 c-1.2,0.2-2.4,0.5-3.6,0.7c-0.1,0-0.2,0-0.2,0c-0.1,0-0.1,0-0.2,0c-2.8,0.1-5.5,0.4-8.3,0.4c-1.2,0-2.5,0-3.7-0.1 c-0.9,0-7-0.8-1.4,0c-6.2-0.9-11.7-1-17.3,2.3c-3.3,1.9-6.5,5.1-8.5,8.7c-63.4,7.6-127.7,12.9-191.3,5.1 c-30.2-4.4-59.8-12-88.1-23.5c-19.9-8.8-38.8-19.5-56.3-32.4c-6.2-5-12.2-10.2-18-15.7c-1.8-1.8-3.9-3.3-6.1-4.6 c-16.6-15.8-32.7-32.1-47-50c-9.1-12.2-17.1-25.2-23.4-39.1c-3.9-10.2-6.7-20.6-8.5-31.3c-1.9-18.9-0.9-37.9,1.4-56.7 c5-35,12.4-69.7,17.8-104.6c6.1-39.5,11.2-79.2,15.3-118.9c2.2-21.1,4-42.3,5.6-63.4c0.2-3.2-0.3-6.6-1.4-10 c0.3-2.2,0.3-4.4,0.1-6.7c-0.5-5.4-1.7-10.4-3.3-15.4c0.2-34.3-8.1-68.3-17.7-101c-5.2-17.9-10.7-35.7-16.1-53.6 c-5.2-17.2-10.1-34.9-19.7-50.3c-0.7-1.1-1.5-2.1-2.3-3c-0.2-1.1-0.4-2.3-0.6-3.4c-0.2-0.9-0.3-1.9-0.4-2.9 c-0.1-0.5-0.7-4.6-0.3-1.7c-1.3-9.6-7.6-19-18.5-18.5c-4.1,0.2-8.6,1.9-12.2,4.8c-5.2,3.3-8.9,8.8-8.6,15.4 c0.2,3.9,0.5,7.8,0.8,11.6c-2.9,2.7-4.7,6.6-5.1,10.9c-0.5,4.8-0.8,9.6-0.9,14.5c-2.6,3.1-4.2,7-4,11.4c0.3,7.2,0.2,14.3-0.4,21.5 c-1.1,6-2.4,11.9-4,17.8c-0.8,2.8-1.6,5.6-2.6,8.4c-0.5,1.4-1,2.7-1.5,4.1c-0.3,0.7-0.6,1.5-0.8,2c-2.4,5.2-5.2,10.2-8.5,14.9 c0,0,0,0.1-0.1,0.1c-0.1,0.1-0.3,0.3-0.4,0.5c-0.9,1-1.8,2-2.8,3c-1,1-2,1.9-3,2.8c-0.3,0.3-0.6,0.5-1,0.8c-0.1,0-0.1,0.1-0.2,0.1 c-2.4,1.4-4.7,2.9-7.2,4.2c-0.3,0.1-2.5,0.9-3,1.1c-1.7,0.5-3.3,1-5,1.4c-3.4,0.8-6.8,1.4-10.3,2c-0.4,0.1-0.7,0.1-0.9,0.2 c-0.2,0-0.6,0.1-1.1,0.1c-2.2,0.3-4.4,0.6-6.6,0.8l-50,6.3c-1.7,0.2-3.4,0.6-5.1,1.1c-15.6-2.5-31.1-6.4-45.9-12 c-1.6-0.6-3.2-1.2-4.8-1.9c-2.7-1.1-1.2-0.5-0.6-0.3c-0.9-0.4-1.8-0.8-2.7-1.2c-3.8-1.7-7.6-3.6-11.2-5.5 c-6.9-3.7-13.6-7.8-20-12.4c-0.8-0.6-1.6-1.2-2.4-1.7c-0.1-0.1-0.2-0.2-0.3-0.2c-0.1-0.1-0.2-0.1-0.3-0.2c-1.4-1.1-2.7-2.2-4-3.3 c-3.2-2.7-6.3-5.6-9.3-8.6c-2.6-2.5-5-5.2-7.4-7.9c-1.2-1.4-2.4-2.9-3.6-4.3c-1.8-2.2-0.7-0.9-0.3-0.4c-0.7-0.9-1.4-1.9-2.1-2.8 c-4.3-6.1-8.2-12.5-11.6-19.1c-0.8-1.7-1.7-3.3-2.4-5c-0.2-0.5-1.3-3-1.3-2.9c-1.4-3.5-2.7-7-3.9-10.5c-2.3-7.1-4.2-14.4-5.6-21.8 c-0.3-1.8-0.6-3.7-0.9-5.6c0-0.2,0-0.3-0.1-0.4c-0.1-0.9-0.2-1.8-0.3-2.7c-0.4-3.7-0.7-7.5-0.8-11.2c-0.3-8.4,0-16.9,0.9-25.3 c0-0.2,0.1-0.9,0.2-1.5c0.1-0.7,0.3-2.1,0.3-2.3c0.3-2.1,0.7-4.2,1.1-6.2c0.8-4.1,1.8-8.2,3-12.3c1.1-4,2.5-8,3.9-12 c0.3-0.9,0.7-1.7,1-2.6c0.2-0.5,0.6-1.4,0.7-1.7c0.7-1.7,1.5-3.4,2.3-5.1c3.8-7.8,8.3-15.2,13.4-22.2c4.6-6.3,1.1-16.2-5.2-19.8 c-7.3-4.3-15.2-1.1-19.8,5.2c-39.5,54.3-40.6,132.7-6.4,189.8c29.5,49.4,81.5,75.5,136.3,85.5c3.3,5.3,8.8,9.3,15.2,8.5 c9.8-1.2,19.6-2.5,29.3-3.7c19.4,0.7,38.8-0.4,58.1-2.8c8.5-1.1,17.1-2.3,25.5-4.2c4.2,0.4,8.5-0.4,11.8-3 c7.9-2.3,15.5-5.3,22.8-9.3c0.8,3.8,1.5,7.6,2.2,11.5c0.6,3.5,1.2,7.1,1.8,10.7c0.3,1.8,0.5,3.6,0.8,5.3c0,0.1,0,0.1,0,0.2 c0.2,1.3,0.3,2.5,0.5,3.8c1.8,15,2.5,30.1,1.9,45.1c-2.3,4.6-3.7,9.7-4.1,15.3c-3.1,42-7.5,84-12.9,125.8 c-3.6,26.3-7.6,52.6-12.2,78.8c-5.1,29.5-11.1,58.8-14.3,88.6c-3.1,28.8-2.3,58.7,5.8,86.7c7.1,24.7,19.3,48,34.5,68.5 c17.2,23.2,36.8,44,57.7,63.9c-12.7,5.1-21.1,17-22,31.9c-0.3,5.4-0.8,10.8-1.4,16.2c-3.1,20.2-8.5,39.8-16.1,58.8 c-13.5,30.8-31.2,62.2-27.9,97c3.3,34.7,21.8,65.6,38.3,95.6c28.3,51.4,64.9,103.7,120.1,128.7c32.8,14.8,67.2,21.2,102.9,23.4 c31.3,1.9,63,1.3,94.3,0c67.3-2.6,136.3-12,196.6-44c29.8-15.8,56-38.3,74.3-66.8c1.5-2.4,3-4.8,4.4-7.3 c7.4,18.1,16.8,34.6,30.4,49.1c12.7,13.5,29.1,21.7,43.9,32.3c15.3,12.5,29.4,26.7,43.8,40.1c15.9,14.7,31.7,29.4,47.6,44.1 c13.2,12.3,35.9,14.1,48.8,0C1562.5,1835.1,1564.4,1812.7,1550.3,1799.6z"/> <path fill="#C16C29" d="M1024.7,795.5c-3.3-10.3-12.5-14.7-22.8-12.9c-0.4,0.1-0.9,0.1-1.3,0.2c-0.2,0-0.5,0-0.8,0.1 c-1.9,0.1-3.8,0.3-5.7,0.3c-2.9,0-6.1,0.1-9-0.4c-1.1-0.2-2.6-0.6-3.1-0.7c-1.4-0.3-2.8-0.6-4.2-1c-1.8-0.5-3.6-1.1-5.4-1.7 c-0.7-0.2-1.3-0.5-2-0.8c-0.1,0-0.1,0-0.2-0.1c-3-1.5-5.9-3-8.7-4.8c-0.7-0.4-4.2-3.1-3.1-2.1c-0.7-0.6-1.4-1.2-2.1-1.8 c-1.4-1.3-2.7-2.6-4-3.9c-0.6-0.6-3.4-4.4-2.3-2.8c-1.6-2.3-3.1-4.6-4.4-7.2c-0.2-0.5-0.5-0.9-0.7-1.4c0-0.1,0-0.1-0.1-0.2 c-0.4-1.3-0.9-2.5-1.2-3.7c-0.5-1.7-0.9-3.4-1.2-5.1c-0.1-0.4-0.1-0.8-0.2-1.3c0-0.1,0-0.2,0-0.3c-0.1-3.1-0.3-6.1-0.1-9.2 c0.1-0.9,0.1-1.8,0.2-2.6c0.1-0.7,0.1-1.1,0.1-1.3c0.2-0.7,0.4-1.3,0.5-1.6c0.4-1.7,0.8-3.4,1.4-5.1c0.3-0.8,0.5-1.7,0.8-2.5 c0.7-1.9,0.6-1.6-0.4,0.8c0.4-2.6,2.9-5.8,4.3-8c0.3-0.5,0.6-0.9,0.9-1.4c0.9-0.9,1.7-2,2.6-2.9c0.8-0.9,2.6-3.2,3.8-3.5 c-2.1,1.5-2.3,1.7-0.6,0.5c0.7-0.5,1.4-1,2.2-1.4c6.3-4,9.8-10.9,8.8-18.4c-0.9-6.7-6.1-14.1-13.3-15.4c-7.4-1.3-14.7-3.3-21.7-6 c-0.5-0.2-0.9-0.4-1.4-0.6c0,0,0,0,0,0c-1.7-0.8-3.4-1.6-5.1-2.4c-3.4-1.7-6.6-3.5-9.8-5.5c-3-1.9-5.9-3.9-8.7-5.9 c0,0-0.1,0-0.1-0.1c-0.6-0.5-1.2-0.9-1.7-1.4c-1.6-1.4-3.2-2.7-4.8-4.2c-5.4-4.9-10.3-10.3-15-15.9c-0.5-0.7-1-1.3-1.4-1.9 c-1.1-1.5-2.2-3.1-3.2-4.7c-2.1-3.2-4-6.4-5.8-9.7c-1.7-3.1-3.3-6.3-4.7-9.5c-0.1-0.2-0.4-0.9-0.6-1.3c0,0,0-0.1,0-0.1 c-0.8-2-1.5-4-2.2-6c-2.4-7-4-14.1-5.2-21.3c-0.1-0.6-0.1-1.3-0.2-1.9c-0.2-1.9-0.3-3.7-0.4-5.6c-0.2-3.8-0.2-7.5,0-11.3 c0.1-1.9,0.3-3.8,0.5-5.8c0.2-1.1,0.4-2.2,0.6-3.4c0.4-2.1,1-4.2,1.6-6.2c0.3-1,2.5-6.3,1.2-3.6c0.7-1.4,1.4-2.8,2.2-4.2 c0.5-0.8,1-1.5,1.4-2.3c0.1-0.1,0.1-0.2,0.2-0.3c0.4-0.5,0.9-1.1,1.5-1.8c2.6-1.4,5.2-2.7,7.9-3.9c1.3-0.6,2.7-1.2,4-1.8 c0.4-0.2,0.7-0.3,0.8-0.3c0.2-0.1,0.4-0.1,0.5-0.2c6.3-2.5,12.7-4.8,19.3-6.7c6.3-1.8,12.6-3.3,19-4.5c1.5-0.3,2.9-0.5,4.4-0.8 c0.2,0,2.8-0.4,3.3-0.5c3.1-0.4,6.2-0.7,9.4-0.9c9.6-0.7,19-8,18.5-18.5c-0.4-9.4-8.2-19.3-18.5-18.5c-26.1,2-51.3,8.3-75.1,18.9 c-2.2,0.3-4.3,1-6.4,2.1c-2.9,1.5-5.6,3.2-8.1,5.1c-1.3,0.8-2.5,1.8-3.5,2.9c-24.6,22.3-24.8,65.4-17.3,95.2 c8.9,35.5,31.3,66.5,60.7,87.8c8.1,5.8,16.9,10.8,26.2,14.8c-8.5,14.8-11.9,32.5-9.6,49.9c4.1,30.3,25,53.1,52.6,64.4 c-14.9,7.7-28.6,18.3-41.2,28.9c-19.8,16.6-37,36.2-51.8,57.3c-29.9,42.6-48.1,92.5-54.3,144c-3.5,29-2.2,58.2,3,86.9 c1.7,9.5,13.8,15.8,22.8,12.9c10.2-3.3,14.8-12.5,12.9-22.8c-0.5-2.9-1-5.8-1.5-8.7c-0.1-0.9-1.1-5.7-0.1-0.9 c-0.3-1.4-0.4-2.9-0.5-4.4c-0.6-5.8-1.1-11.7-1.3-17.6c-0.5-11.7-0.2-23.5,0.7-35.2c0.2-2.9,0.5-5.9,0.9-8.8 c0.1-1.1,0.3-2.2,0.4-3.3c0.1-0.7,0.3-1.6,0.3-1.9c0.9-5.8,1.9-11.6,3.2-17.4c2.5-11.5,5.6-22.9,9.5-34c1.8-5.1,3.6-10.2,5.7-15.2 c0.2-0.4,1-2.4,1.1-2.7c0.3-0.8,0.7-1.6,1-2.3c1.4-3.1,2.8-6.3,4.4-9.3c4.9-10.1,10.5-20,16.5-29.5c3.2-5,6.5-9.8,9.9-14.6 c0.9-1.2,1.7-2.4,2.6-3.6c0.3-0.4,1.7-2.2,1.8-2.4c1.4-1.8,2.9-3.6,4.4-5.4c7.5-9,15.6-17.6,24.2-25.6c4.7-4.3,9.5-8.5,14.4-12.5 c0.7-0.6,1.5-1.2,2.2-1.7c-0.3,0.3,2.9-2.2,3.4-2.6c2.8-2,5.6-4,8.4-6c6.2-4.2,12.5-7.8,19.1-11.2c0.4-0.2,0.7-0.4,1-0.5 c0.2-0.1,0.5-0.2,0.9-0.3c2.1-0.8,4.3-1.5,6.5-2.1c1.6-0.4,3.3-0.8,5-1.1c0.1,0,0.2,0,0.3-0.1c1.1-0.1,2.1-0.2,3.2-0.2 c9.7-0.4,19-8.2,18.5-18.5c-0.1-1.2-0.2-2.5-0.5-3.7C1022.8,813.5,1027.2,803.2,1024.7,795.5z"/> <g> <path fill="#C16C29" d="M1461.9,536.7c-0.1-12.5-1.1-25.1-3.8-37.2c-2.9-13.4-8.7-25.9-17.3-36.6c-9.5-11.6-23.1-19-37.2-23.2 c-33.1-9.9-70.3-8.9-103.8-1.7c-9.5,2-15.9,13.6-12.9,22.8c3.2,10,12.6,15.1,22.8,12.9c3.4-0.7,6.8-1.4,10.2-2 c1.2-0.2,2.4-0.4,3.6-0.6c0.6-0.1,3.6-0.4,3.7-0.4c6.9-0.7,13.8-1.1,20.7-1.1c6.3,0,12.6,0.2,18.9,0.8c1.9,0.2,3.8,0.4,5.6,0.6 c0.3,0,0.5,0.1,0.8,0.1c3.6,0.5,7.2,1.1,10.7,1.9c3.1,0.6,6.1,1.4,9.1,2.2c1.4,0.4,2.7,0.8,4.1,1.3c0.3,0.1,3.5,1.4,3.1,1.2 c2.1,1,4.2,2.1,6.2,3.4c0.6,0.4,1.1,0.7,1.7,1.1c-0.6-0.3,2.5,2.3,3,2.7c0.8,0.8,1.6,1.8,2.4,2.6c0.1,0.1,0.1,0.1,0.1,0.1 c1.3,2,2.6,3.9,3.7,6c0.3,0.6,0.6,1.3,0.9,1.9c0.1,0.1,0.5,0.9,0.7,1.4c0,0,0,0.1,0,0.1c0.1,0.1,0.1,0.2,0.2,0.3 c-0.1-0.1-0.1-0.2-0.1-0.3c0.9,2.7,1.8,5.3,2.6,8c0.7,2.6,1.3,5.2,1.8,7.9c0.2,1.2,0.4,2.4,0.6,3.6c0,0.1,0,0.2,0,0.3 c0,0.2,0,0.4,0.1,0.7c0.4,5.4,0.9,10.8,1,16.3c0.1,5.6,0.1,11.3-0.2,16.9c-0.1,3-0.4,6-0.7,8.9c0,0.5-0.1,0.8-0.1,1.1 c-0.1,0.3-0.1,0.6-0.2,1c-0.4,1.7-0.6,3.5-1,5.2c-0.7,3.2-2,6.2-2.7,9.4c-0.1,0.2-0.1,0.4-0.1,0.5c-0.1,0.2-0.2,0.4-0.3,0.6 c-0.6,1.3-1.3,2.7-2,4c-1.2,2.2-2.5,4.3-3.9,6.3c-0.3,0.4-0.6,0.9-0.9,1.3c0.8-1.2-2.1,2.5-2.6,3.1c-3.3,3.7-6.9,7.1-10.7,10.3 c-0.4,0.3-2.5,1.9-2.4,1.9c-0.3,0.3-0.7,0.5-1,0.8c-2.5,1.8-5,3.5-7.6,5.2c-24.2,15.7-50.9,28-76.4,41.5 c-8.6,4.5-11.9,17.2-6.6,25.3c5.6,8.7,16.1,11.5,25.3,6.6c25.1-13.2,51.2-25.4,75.1-40.7c23.1-14.8,43.2-34.2,51.2-61.1 C1461.3,567.4,1462,551.8,1461.9,536.7z"/> <path fill="#C16C29" d="M1418.1,495.4c-0.1-0.1,0.1,0.3,0.8,1.6c0,0,0,0,0-0.1C1418.6,496.4,1418.4,495.9,1418.1,495.4z"/> </g> <path fill="#EF9749" d="M1302.5,408.4c-4.6-7.1-14.3-10.5-21.9-5.7c-0.2,0.2-1.4,0.7-1.9,1c-0.2,0.1-0.4,0.1-0.6,0.2 c-0.2,0-0.4,0-0.6,0c-0.4,0-0.6,0-0.8,0c-0.7-0.2-1.5-0.5-2.1-0.5c-0.1-0.1-0.2-0.2-0.4-0.3c-0.1-0.1-0.2-0.2-0.3-0.2 c-0.8-0.8-1.6-1.6-2.3-2.5c-0.3-0.4-0.6-0.7-0.9-1c0-4-1.4-7.9-4.6-10.8c-54.1-49.1-126.6-75.2-199.6-71 c-40.7,2.4-80.5,12.5-119.1,25.3c-38.4,12.8-75.9,28-113,44.2c-36.3,15.9-72.1,33-107.8,50.2c-8.5-4-17-7.9-25.4-11.9 c-7.6-3.5-17.6-2.4-21.9,5.7c-3.7,7.1-2.4,18.1,5.7,21.9c6.4,3,12.8,6,19.2,9c0.3,1.6,0.9,3.1,1.8,4.4c5,7.8,13.8,9.6,21.9,5.7 c69.7-33.7,138.4-66.9,210.9-92.5c18-6.3,36.1-12.3,54.5-17.2c9.5-2.6,19.1-4.9,28.7-6.8c8.5-1.7,18.7-3.5,25.7-4.3 c18.6-2.2,37.5-2.8,56.1-1.3c9.4,0.8,12.6,1.2,21.8,3c8.3,1.6,16.6,3.6,24.8,6c8.3,2.4,18.5,6.1,25.2,8.9 c6.6,2.8,16.4,7.6,23.9,11.8c17.2,9.6,30.2,19,44,31.5c0.3,0.3,0.7,0.6,1.1,0.9c0.2,3.8,1.8,7.6,4.5,11c11,14,33.1,16.8,47.8,7.4 C1303.8,425.8,1307.3,415.9,1302.5,408.4z"/> <g> <path fill="#F9D7AD" d="M1325,712c-0.2-2.6-0.7-2.2-0.4-0.9c0.1,0.2,0.2,0.4,0.2,0.6C1324.9,711.8,1324.9,711.9,1325,712z"/> <path fill="#F9D7AD" d="M1502.4,998.6c-0.8-4.6-3.8-8.2-7.8-10.5c-4.7-15.4-8.9-30.9-12.6-46.5c-0.8-3.5-1.6-7-2.4-10.5 c-0.7-3-2.3-5.7-4.5-7.9c-1.5-4-3.2-8-5-12c-5.6-12.3-13.1-23.1-22.4-32.3c-13.5-30.1-31.6-57.8-53.1-82.8 c-5.2-6-10.6-11.9-16.2-17.5c-2.8-2.8-5.7-5.6-8.6-8.3c-0.7-0.7-1.4-1.3-2.1-2c0-0.8,0-1.6-0.2-2.4c-0.3-3.8-0.9-6.1-2.3-9.4 c-2.1-4.9-5.3-8.6-9.4-11.9c-3-2.3-6.2-3.9-9.5-4.9c0-0.1-0.1-0.1-0.1-0.2c-3.8-5-7.8-9.8-11.9-14.5c-1.8-2-3.5-4.1-5.2-6.1 c0,0,0,0-0.1-0.1c-0.7-1.1-1.5-2.2-2.2-3.3c-0.7-1.1-1.4-2.2-2-3.3c0,0,0,0,0,0c0,0.2,0,0.3,0,0.5c0-0.2-0.1-0.5-0.2-0.8 c-0.1-0.2-0.2-0.4-0.2-0.6c-0.2-0.6-0.5-1.1-0.6-1.6c0-0.1-0.1-0.3-0.1-0.5c0.1-0.1-0.1-1.2-0.1-2.1c0.1-0.3,0.4-2.8,0.6-3.4 c1.2-3.9,2.8-7.7,4.4-11.5c6.7-16.1,13.4-32.1,20.1-48.2c1.3-3,1.1-6.6,0-9.9c2.4-0.7,4.7-1.7,7-2.9 c20.3-11.4,41.8-21.8,59.5-37.3c18.5-16.1,30.8-43.4,25.5-68c0.3-1.5,0.5-3,0.6-4.6c0.5-1.6,1-3.2,1.5-4.8 c2.8-9.6,4.4-19.3,1.5-29.1c-4.5-15.1-17.7-24.7-32.5-25.9c-5.9-3.5-12.6-5.5-19.7-5.8c-2.4-0.1-4.8,0.2-7.2,0.7 c-1.2-0.5-2.4-1-3.7-1.5c-5.4-2-11.2-2.8-16.9-3c-6.5-0.2-13.3,0.8-19.7,2.5c-5.8-2.2-11.8-3.4-17.2-3.1 c-12.6,0.6-25.9,4.7-34.6,14.4l-2.7,3c-0.9-0.8-1.9-1.5-3.1-2.1c-14.4-7.4-28.9-14.6-44.4-19.1c-8.8-3.6-18.1-5.8-27.9-5.7 c-6,0.1-12.7,1-18.8,3c-6.4,1.4-12.7,3.5-18.6,6.5c-3.2,0.3-6.5,0.8-9.7,1.4c-9.1,1.8-17.6,5.3-26.1,8.9 c-3.6,1.6-7.2,3.2-10.8,4.8c-0.4,0.2-0.7,0.3-1.1,0.5c-2.6-1.6-5.7-2.4-8.8-2.2c-17.2,1.4-34.4,3.9-51.3,7.7 c-0.1,0-0.2,0-0.2,0.1c-4.6-3.2-9.3-6-15-8.1c-16.9-6.2-36.5-4.6-52.5,3.5c-7.1,0.6-14.2,1.9-20.9,4c-1.7-1.2-3.6-2.1-5.7-2.4 c-25-3.8-47.9,3.5-69,16.8c-10,6.3-19.5,13.5-28.7,20.8c-10.3,8.1-16.1,18.7-18.1,31.6c-3.8,24.3-6.1,50,8.9,71.3 c11.4,16.2,27.8,26.7,41.4,40.8c6.9,7.1,12.5,15.5,19.7,22.4c9.6,9.3,21.4,15.8,35,15.6c0.4,0,0.8,0,1.2-0.1 c-0.5,1.9-0.9,3.8-1.2,5.7c-8.6,10-14.9,21.9-18.4,34.5c-4.5,16.3-5.5,37,3.6,51.9c8,13.1,22.6,21,37.5,23.3 c8.2,1.3,16.4,1.6,24.7,1.8c3.5,0.1,6.9,0.2,10.4,0.5c0,0,2.9,0.5,3.5,0.6c1.2,0.3,2.4,0.6,3.6,1c-1.1,0.8-2.1,1.7-3.1,2.6 c-2-0.2-4.1,0-6.3,0.6c-15.5,4.4-28.1,15.1-40.9,24.4c-12.9,9.3-25.6,18.9-37.9,28.9c-23.9,19.4-45.9,41.3-63,67 c-18.1,27.1-29.7,58.3-38.2,89.5c-8.2,29.9-14.7,60.7-16.5,91.7c-1.8,31.6,2.5,64,16.7,92.5c5.6,22,13.4,43.6,25.6,62.8 c13.9,21.9,32.7,39.7,54,54.3c20.7,14.2,43.5,24.8,66.8,34c24.5,9.7,50,19,76.2,22.7c25.5,3.6,51,1.4,73.5-9.6 c1.6,0.5,3.2,0.8,4.9,1c14.9,1.4,29.9-1.8,44.2-5.7c14-3.8,27.9-7.9,41.9-11.8c27.6-7.8,55.1-15.5,82.7-23.4 c25.8-7.4,51.4-15.9,74.5-29.9c20.8-12.7,39.6-28.8,56-46.8c6.6-7.3,12.9-14.9,18.9-22.7c3.5-0.6,6.9-2.2,9.6-5.1 c8-8.4,13.6-17.7,17.3-28c14.4-23.4,22.1-50.2,25.2-77.8C1515.9,1078.7,1508.9,1038.2,1502.4,998.6z M1163.1,1278.7 c1,0.6,2,1.2,3,1.8c-1.1,0.4-2.2,0.9-3.3,1.3C1162.9,1280.8,1163,1279.7,1163.1,1278.7z"/> </g> <path fill="#F9D7AD" d="M692,552.6c-0.1-0.1-0.1-0.3-0.2-0.4c2.5-8.8,2.9-18.6,0.3-26.7c-3.8-11.9-11.2-23.3-22.5-29.3 c-10.4-5.5-20.9-7.3-32.2-5.9c-2.5-3.6-5.8-6.8-9.9-9.4c-13.4-8.6-28.2-12.8-43.9-14.6c-13.7-1.6-27.7,1.2-41,4.6 c-23.1,6-45.2,13.6-64.1,28.5c-45.1,35.6-33.7,104.6-0.2,143.8c10.1,11.8,25,20.5,40.3,23c8.7,1.4,17.1,2,25.9,1.3 c2.8-0.2,5.6-0.6,8.4-0.8c2.8,1.3,5.6,2.4,8.6,3.4c12.6,4.3,28.4,4.2,41.2,0.5c4.3-1.2,8.4-2.8,12.3-4.7 c8.4-2.8,16.5-6.5,24.6-10.1c5.6-2.5,11.3-5.2,16.4-8.6c15.9-10.8,28.8-26,31.9-45.6c1-6.6,1.4-12.7,1-18.8 C694,573.5,695.7,561.8,692,552.6z"/> <path fill="#E0B582" d="M1047.2,551.1c-0.3-9.3-2.6-16-6.3-24.3c-3-6.8-12-12.6-18.8-14.5c-7.5-2.1-17.6-1.1-24.3,3.2 c-2.2,1.4-4.4,3.1-6.3,5c-6,1.6-11.6,4.5-16,8.9c-7.5,7.5-10.4,19.2-10.1,29.6c0.2,7,2,13.9,5.2,20c0.9,3.9,2.3,7.7,4.3,11.2 c11.8,20.5,40,25.1,56.7,7.6c7.7-8,12.2-19.2,13.1-30.5C1046.4,562.1,1047.3,556.7,1047.2,551.1z"/> <path fill="#E0B582" d="M1117.2,752.8c-1.5-5.3-4.2-10-8.1-13.9l-2.1-1.9c-2.9-3.1-6.2-5.2-10.1-6.5c-3.8-2-7.8-2.9-12.1-2.7 c-4.3-0.2-8.4,0.7-12.1,2.7c-3.9,1.3-7.3,3.4-10.1,6.5c-1.6,2.1-3.3,4.3-4.9,6.4c-2.8,4.9-4.3,10.2-4.3,15.9l1.1,8.4 c1.5,5.3,4.2,10,8.1,13.9l2.1,1.9c2.9,3.1,6.2,5.2,10.1,6.5c3.8,2,7.8,2.9,12.1,2.7c4.3,0.2,8.4-0.7,12.1-2.7 c3.9-1.3,7.3-3.4,10.1-6.5c1.6-2.1,3.3-4.3,4.9-6.4c2.8-4.9,4.3-10.2,4.3-15.9C1117.9,758.4,1117.6,755.6,1117.2,752.8z"/> <path fill="#E0B582" d="M1298.5,729c-0.8-17.1-13.8-31.5-31.5-31.5h-1.1c-16.5,0-32.3,14.5-31.5,31.5 c0.8,17.1,13.8,31.5,31.5,31.5h1.1C1283.5,760.5,1299.3,746,1298.5,729z"/> <path fill="#C59866" d="M1100.1,744.6c-2.3-4-6.1-7.3-10.7-8.3c-2.3-0.5-4.6-0.7-6.9-0.4c-0.9-0.1-1.7-0.2-2.6-0.1 c-4.4,0.2-9.9,1.6-12.7,5.3c-3,3.8-3.8,4.7-5.5,9.2c-0.5,1.4-0.6,2.7-0.8,4.3c-0.7,5.4,0.4,10.1,2.7,15c1.2,2.6,3.1,5,5.2,6.9 c3.1,2.8,5.3,4,9.2,5.4c2.2,0.8,4.5,0.9,6.8,1.1c2.7,0.3,6.1-0.8,8.9-2.4c2-0.5,4-1.2,5.7-2.3c4-2.6,7.7-6.5,8.7-11.2 C1110,758.6,1106.6,749.9,1100.1,744.6z"/> <path fill="#C59866" d="M1287.6,721.8c-1.1-4.2-4.4-8.7-8.3-10.8c-1-0.6-2.1-1-3.3-1.4c-1.2-0.9-2.4-1.7-3.7-2.3 c-2.8-1.6-5.8-2.4-9.1-2.5c-2.5-0.1-4.8,0.4-6.9,1.6c-3.9,1.6-6.6,4.2-8.6,7.5c-3,2.8-5.3,6.4-6.6,10.3 c-4.2,12.8,5.2,25.9,18,27.6c10.4,1.4,21-4.2,24.8-14c0.6-0.7,1.2-1.5,1.8-2.3C1288.4,732.2,1288.7,725.7,1287.6,721.8z"/> <path fill="#E0B889" d="M617.5,537.3c-3.2-7.6-11-10.9-18.9-9.3c-1.3,0.3-2.6,0.5-3.8,0.7c-0.2,0-1.5,0.2-2.2,0.2 c-2.9,0.2-5.8,0.3-8.8,0.2c-2.3-0.1-4.7-0.2-7-0.5c0.2,0-2.9-0.5-3-0.5c-1.3-0.3-2.6-0.6-3.9-0.9c-2.6-0.6-5.1-1.4-7.7-2.3 c-1-0.3-2-0.7-3-1.1c0.1,0-2.7-1.3-2.8-1.3c-1.1-0.5-2.2-1.1-3.2-1.7c-0.5-7.6-8.7-14.3-16-14c-4.4,0.2-8,1.8-10.6,4.2 c-1.4,0.5-2.7,1.3-4,2.3c-2.6,2-4.5,4.8-5.5,7.9c-1.7,3.5-2.7,8-1.3,11.8c1.1,3,2.2,5.9,3.3,8.9c0.9,2.4,2.1,4.7,3.7,6.5 c-1.2,5.1,0.4,10.5,4.1,15.1c0.2,0.2,0.6,0.7,0.8,1c0.7,1,1.4,2,2.1,3c1.4,2.1,2.7,4.2,3.9,6.3c1.2,2.2,2.3,4.4,3.4,6.6 c0.1,0.3,0.2,0.5,0.3,0.6c0,0,0,0.1,0.1,0.1c0.5,1.3,1,2.6,1.4,3.9c0.3,0.8,0.5,1.5,0.8,2.3c-1.6,11.1,0.2,22.6,6.1,32.2 c8.2,13.3,29.9,8.1,29.8-8.1c-0.1-8.4-1.1-16.6-3-24.6c0-0.2,0.1-0.3,0.1-0.4c0.1-0.2,0.3-0.5,0.5-0.9c0.7-1.4,1.4-2.7,2.2-4 c0.5-0.8,1-1.5,1.5-2.3c0,0,0,0,0,0c5.1-6.1,8.4-8.4,14.4-12.1c6.4-3.9,13.1-7.1,19.9-10.3C618.2,554,620.4,544,617.5,537.3z"/> <path fill="#E0B889" d="M690.6,587c0-10.4-0.4-20.9-1.4-31.3c-0.1-1.4-0.3-2.8-0.4-4.2c0-0.5-0.1-0.8-0.1-1c0-0.1,0-0.2-0.1-0.5 c-0.4-2.5-0.8-4.9-1.2-7.4c-0.9-5.1-2.1-10.1-3.6-15c-0.8-2.5-1.6-5-2.5-7.4c-0.1-0.2-0.1-0.4-0.2-0.5c-0.1-0.2-0.1-0.3-0.2-0.5 c-0.2-0.4-0.4-0.8-0.5-1.3c-0.9-0.7-1.6-2.9-2.2-3.8c-1-1.5-2.1-3-3.2-4.5c-0.1-0.1-0.1-0.1-0.1-0.2c-0.4-0.5-0.8-1-1.1-1.4 c-1-1.3-2.1-2.6-3.2-3.9c-0.5-0.5-0.9-1.1-1.4-1.6c-5.3,2.6-8.4,7.8-9.1,14.3c-0.8,7.5-0.4,14.9,0.5,22.4 c0.5,4.4,1.2,8.8,1.7,13.2c0,0.2,0.1,0.4,0.1,0.6c0.1,0.8,0.2,1.6,0.3,2.3c0.3,2.1,0.5,4.2,0.7,6.2c0.3,3.5,0.5,7.1,0.4,10.6 c-0.1,4.6-0.1,4.7-1.2,8.8c-0.4,1.5-0.9,3-1.4,4.4c-0.1,0.2-0.1,0.4-0.2,0.5c-0.2,0.4-0.4,0.9-0.6,1.3c-1.5,3-3.3,5.8-5.2,8.6 c-0.3,0.5-0.5,0.7-0.6,0.9c-0.1,0.1-0.3,0.3-0.7,0.8c-1,1.2-2.1,2.4-3.1,3.5c-2.4,2.5-4.8,4.9-7.4,7.1c-1.2,1-2.4,2.1-3.6,3.1 c-0.5,0.4-1,0.8-1.6,1.2c-0.1,0-0.1,0.1-0.2,0.2c-2.8,2.1-5.7,4.1-8.6,6.1c-6,4-12.1,7.8-18.4,11.2c-3,1.6-6.1,3.2-9.3,4.6 c-2.4,1.1-4.3,1.8-8.1,3.1c-3.2,1.1-6.5,2.1-9.8,2.9c-1.6,0.4-3.3,0.8-5,1.1c-0.8,0.2-1.7,0.3-2.5,0.4c-0.3,0-0.4,0.1-0.6,0.1 c-0.1,0-0.1,0-0.2,0c-3.4,0.4-6.8,0.6-10.2,0.5c-1.7,0-3.5-0.1-5.2-0.2c-0.7,0-4.4-0.4-3.9-0.4c-7.3-1.1-14.5-3.2-21.4-5.8 c-3.9-1.4-4.3-1.7-7.5-3.1c-3.5-1.6-6.9-3.3-10.3-5.1c-6.5-3.4-12.9-7.1-19.3-10.9c-2.9-1.7-5.9-3.4-8.7-5.3 c-1.3-0.8-2.6-1.7-3.8-2.6c0.2,0-2.2-2.2-2.7-2.7c-0.3-0.3-0.5-0.5-0.6-0.6c-0.3-0.5-0.6-0.9-0.9-1.4c-0.9-1.4-1.6-2.8-2.3-4.3 c-0.8-1.7-0.1-0.3,0,0c-0.3-0.8-0.6-1.6-0.8-2.3c-0.6-1.8-1.1-3.7-1.7-5.6c-2-7.3-3.9-14.8-5.1-22.2c-0.1-0.7-0.3-2.1-0.5-4.1 c-0.2-2.2-0.2-4.3-0.2-6.5c0-0.9,0.1-1.9,0.1-2.8c0-0.2,0-0.5,0.1-0.7c0.3-1.5,0.6-3,1-4.5c0.4-1.4,0.9-2.7,1.3-4.1 c-0.5,1.6,0.8-1.6,1.2-2.4c0.8-1.4,1.6-2.8,2.5-4.2c0.4-0.6,0.8-1.1,1.2-1.7c0,0,0.1-0.1,0.1-0.1c2.2-2.5,4.5-4.8,6.9-6.9 c0,0,0.1,0,0.1-0.1c0.6-0.4,1.1-0.8,1.7-1.2c1.4-0.9,2.8-1.7,4.2-2.5c0.7-0.4,3.2-1.5,2.8-1.4c1.2-0.5,2.4-0.9,3.7-1.2 c1.6-0.5,3.2-0.8,4.7-1.1c0.1,0,0.2,0,0.4-0.1c0.7,0,2.4-0.1,2.3-0.1c6.9-0.4,13.6-4.9,15.5-11.6c4.5-2.2,9-4.3,13.4-6.5 c7.6-3.7,10.2-15,5.7-21.9c-5-7.8-13.8-9.6-21.9-5.7c-6,2.9-12.1,5.8-18.1,8.8c-2.8,1.3-4.9,3.7-6.2,6.6 c-26.6,6-49.5,27.7-53.9,55.3c-3,18.8,1.5,38.6,7.2,56.4c2.9,8.9,7,17.3,13.6,24.1c6.2,6.4,14.2,10.9,21.8,15.4 c15.1,8.9,30.6,17.4,47.3,23.1c17.4,5.9,35.4,7.5,53.5,4.7c16.8-2.6,33-9.4,47.7-17.7c14.2-8,28.2-17.6,39.8-29 c9.8-9.6,17.3-20.8,21.4-33.3C691.1,591.2,690.6,589.1,690.6,587z"/> <path fill="#E0B889" d="M1416.9,522.1c-5.1,0.1-10.2,0.2-15.3,0.3c-0.4-0.7-0.7-1.4-1.1-2.1c-1.1-2.3-2-4.7-3-7 c-5-11.3-12.6-20.7-24.7-24.6c-12.5-4-21.8,8.4-19.7,19.7c-0.4-2-0.2,0.2-0.1,1.5c-0.1,0.4-0.3,1.5-0.5,2c-0.1,0.5-0.8,2-0.8,2.2 c-0.6,1.3-1.4,2.6-2.1,3.9c-3.1,5.3-7,10.2-10.1,15.5c-4.1,7.1-6.9,14.6-7.6,22.3c2.5,4.7,4.9,9.4,7.1,14.1 c8.1,17.4,17,38.7,15.6,58.7c5.4,2.2,11.7,1.6,16.7-3.4l6.5-6.6c5.8,2.4,12.4,1.2,17.5-3.3c22.4-19.6,35.4-47.7,37.5-77.2 C1433.5,529.6,1425,522,1416.9,522.1z M1377.9,573c0.3-1.6,0.6-3.2,1-4.8c1.2,0.1,2.3,0.1,3.4,0.2 C1380.9,569.9,1379.4,571.5,1377.9,573z"/> <g> <path fill="#E0B889" d="M977,1163c-0.1-0.4-0.2-0.9-0.4-1.6c0,0,0,0.1,0,0.1C976.7,1162,976.9,1162.5,977,1163z"/> <g> <path fill="#E0B889" d="M1463,1010.8c-12.6-2.9-25.2,3.8-28.9,16.4c-1.2,4.1-2.5,8.2-4,12.2c-0.7,1.8-1.9,3.9-2.3,5.8 c-0.4,0.9-0.8,1.8-1.2,2.7c-3.6,7.8-7.8,15.3-12.5,22.4c-1.2,1.8-2.4,3.5-3.7,5.2c-0.1,0.2-0.3,0.5-0.6,0.8 c-0.1,0.1-0.1,0.1-0.1,0.2c-3.1,3.7-6.2,7.3-9.6,10.7c-0.5,0.5-0.9,0.9-1.4,1.3c-2,1.3-3.9,3-5.3,4.9c-0.7,0.6-1.4,1.3-2.1,1.9 c-0.5,0.4-1.1,0.9-1.6,1.3c-2,1.4-3.9,2.8-5.9,4.1c-3.3,2.2-6.8,4.2-10.3,6.1c-1.9,1-3.8,2-5.7,2.9c-1,0.5-2.6,1.5-4,2.2 c-0.2,0-0.6,0-1.3,0.3c-1,0.4-2,0.8-3,1.2c-2,0.8-4,1.5-6,2.2c-4.1,1.4-8.2,2.7-12.4,3.8c-8.7,2.4-17.4,4.3-26.3,5.8 c-1.9,0.3-3.8,0.6-5.7,0.9c-0.8,0.1-1.5,0.2-2.3,0.3c-4.5,0.3-9,1.1-13.5,1.5c-40.5,3.9-81.9,4.7-122.5,2.2 c-5.2-0.3-10.4-0.7-15.6-1.2c-2.6-0.3-5.2-0.6-7.8-0.9c-0.2,0-0.6-0.1-0.9-0.1c-1.2-0.2-2.3-0.4-3.5-0.6 c-10-1.6-19.9-3.8-29.6-6.4c-19.6-5.4-38.7-12.6-57.5-20.4c-1.2-0.5-2.3-1-3.5-1.4c-0.1,0-0.1-0.1-0.2-0.1 c-0.1,0-0.2-0.1-0.3-0.1c-2.6-1.1-5.2-2.2-7.8-3.3c-4.9-2.1-9.7-4.2-14.6-6.3c-8.5-3.7-17-7.6-25.2-11.9 c-4.1-2.2-8.1-4.5-12-6.9c-2.2-1.4-4.3-2.8-6.4-4.2c-0.1-0.1-0.2-0.2-0.4-0.3c-0.1,0-0.5-0.3-1.5-1.1c-0.1-0.1-0.2-0.2-0.3-0.3 c-0.1-0.1-0.2-0.1-0.3-0.2c0.1,0,0.1,0.1,0.2,0.1c-3.4-2.8-6.6-5.7-9.5-8.9c-1.3-1.4-2.4-3-3.7-4.4c-0.8-1.2-1.5-2.3-2.3-3.5 c-1.1-1.7-2.4-3.3-3.9-4.7c-4.8-9.9-16.5-16.4-27.5-12.8c-11.9,3.9-20.1,16.3-16.4,28.9c3.4,11.7,9,22.6,16.5,32.1 c-4.1,18.8-6.6,37.9-7.3,57.1c-0.8,19.5,1.9,43,18,56.4c22,18.5,50.4,11.1,74.1,0.4c8.6-3.8,16.5-8.7,23.9-14.4 c4.9-3.7,9.6-7.5,14-11.8c1.5-1.5,3-3,4.4-4.5c0.5-0.5,1-0.9,1.5-1.4c0.2,0,0.4,0,0.6,0c2.9,0.2,5.7,0.6,8.5,0.9 c6.5,0.8,13,1.5,19.4,2.3c4.1,0.5,8.2,1,12.3,1.4c0.2,31.8,16.7,63.5,44.3,80c12.5,7.5,28.4,11.2,42.3,5.7 c11.3-4.4,19.8-12,28-20.8c6.4-6.8,12.7-13.6,19.4-20.1c3-2.9,6-5.8,9.1-8.6c1.7-1.6,3.5-3.1,5.3-4.6c1.2-1,3.8-4.1,5.4-4.4 c-0.8,0.6-1.6,1.2-2.3,1.8c0.6-0.5,1.2-0.9,1.8-1.4c1-0.7,2-1.5,3.1-2.2c2.1-1.4,4.1-2.8,6.3-4.1c2.1-1.3,4.3-2.5,6.4-3.6 c0.9-0.4,1.7-0.9,2.6-1.3c0,0,0,0,0,0c1.9-0.1,4.7-1.8,6.5-2.4c1.2-0.4,2.5-0.7,3.7-1c6.5,9.8,15,18.1,25.5,24.3 c17.6,10.4,41.7,15,59.8,3.3c0.4-0.3,0.8-0.5,1.2-0.8c5.3,1.1,11,0.3,16.2-2.7c25.2-14.6,38.3-43.3,34.8-71.6 c13.1,3.2,27.2,1.7,39.7-5.5c10.7-6.1,15.3-21.5,8.4-32.2c-4.5-7-11.9-11.2-19.6-11.5c11.1-16.7,19.5-35.3,25.3-54.7 C1482.9,1027.9,1475.2,1013.6,1463,1010.8z M1024.6,1147.6c-1.6,1.5-3.3,2.9-4.9,4.4c-0.2,0.2-0.4,0.4-0.7,0.6 c-0.6,0.4-1.2,0.8-1.8,1.2c-3.4,2.4-6.9,4.6-10.5,6.5c-1.9,1.1-3.9,2.1-5.9,3c-0.2,0.1-0.6,0.3-1,0.4c-0.2,0.2-0.7,0.4-1.7,0.8 c0,0-0.1,0-0.1,0c-0.1,0-0.1,0.1-0.2,0.1c0,0,0.1-0.1,0.1-0.1c-3.8,1.4-7.7,2.7-11.6,3.7c-1.2,0.3-4.6,0.5-6,1.2 c-0.6,0-1.1,0-1.7,0c2.1,1.3,2,3.7,0.8,1.5c-0.1-0.2-0.3-0.5-0.4-0.7c0.1,0.1,0.3,0.2,0.4,0.3c-0.1-0.1-0.3-0.3-0.4-0.4 c0.1,0,0.1-0.1-0.1-0.2c0,0-0.1,0-0.2-0.1c0,0,0,0,0-0.1c0,0-0.1,0-0.1-0.1c0,0,0,0-0.1-0.1c0,0,0,0,0,0c0.1,0,0.1,0.1,0.2,0.1 c0-0.1-0.1-0.1-0.1-0.2c0,0,0,0-0.1,0c0,0,0-0.1,0-0.1c0,0,0,0,0.1,0c0,0-0.1-0.1-0.1-0.1c-0.5-2-0.9-4.2-1.5-6.2 c0.5,2.1-0.2,1.6-0.3-0.1c0-0.5-0.1-0.9-0.1-1.4c-0.1-0.3-0.2-0.6-0.2-0.8c0.1,0.3,0.2,0.5,0.2,0.7c0-0.4-0.1-0.8-0.1-1.2 c-0.1-2-0.2-4-0.1-6c0-5.4,0.4-10.8,0.8-16.2c0.2-2.8,0.5-5.7,0.8-8.5c0.1-1.3,0.3-2.5,0.4-3.8c0.1-0.4,0.4-2.8,0.5-3.5 c0-0.3,0.1-0.5,0.1-0.6c0.2-1.5,0.5-3,0.7-4.5c13.4,7.3,27.6,13.4,41.7,19.5c3.3,1.4,6.6,2.8,9.9,4.2 C1029,1143.1,1026.9,1145.4,1024.6,1147.6z M1177.4,1219.3c-0.4,0.1-0.8,0.2-1.2,0.3c-0.1-0.3,0.4-0.5,0.9-0.5 c0.1,0,0.3,0.1,0.4,0.1C1177.5,1219.3,1177.4,1219.3,1177.4,1219.3z M1204.8,1191.6c-5.8,5.8-11.5,11.9-17.1,17.9 c-2.6,2.8-5.3,5.7-8.1,8.3c-0.4,0.4-1.4,1-1.8,1.2c-0.1,0-0.3-0.1-0.4-0.1c-0.5-0.3-1-0.6-1.5-0.8c-1.6-0.9-3.1-1.8-4.6-2.9 c2,1.2-0.9-0.7-1.5-1.3c-2.5-2.3-4.6-4.9-6.9-7.3c-0.4-0.6-0.8-1.2-1.2-1.8c-1.1-1.8-2.2-3.6-3.2-5.5c-0.3-0.6-0.6-1.2-0.9-1.8 c-0.2-1.7-1.6-4-2-5.6c-0.6-2-1.1-4.1-1.6-6.1c-0.1-0.6-0.2-1.3-0.4-1.9c-0.2-2.7-0.3-5.5-0.2-8.2c21.5,2.3,43.3,3.2,65.1,3 C1213.8,1182.9,1209.2,1187.2,1204.8,1191.6z M1348.6,1178.4c-0.2,0-0.4,0-0.6,0c-0.3,0-0.5,0-0.8,0c-1.3-0.3-2.7-0.6-4.1-1 c-0.4-0.1-1.5-0.6-2.4-0.9c-0.6-0.3-1.3-0.6-1.5-0.7c-1.3-0.7-2.6-1.5-3.8-2.3c-0.5-0.3-1-0.6-1.5-1c-0.1-0.1-0.2-0.1-0.3-0.2 c-0.6-0.5-1.1-1-1.6-1.5c-0.3-0.3-0.7-0.6-1-1c8.8-1.7,17.5-3.7,26-6.2C1354.5,1168.7,1351.7,1173.7,1348.6,1178.4z"/> <path fill="#E0B889" d="M985.6,1066c0.1,0-0.8-0.8-1.9-1.4c0,0,0,0,0.1,0.1C984.3,1065,985,1065.5,985.6,1066z"/> </g> <path fill="#E0B889" d="M978.7,1169.4c0,0-0.1,0-0.1-0.1C978.6,1169.4,978.6,1169.4,978.7,1169.4 C978.6,1169.4,978.7,1169.4,978.7,1169.4z"/> <path fill="#E0B889" d="M979.8,1170.8c0-0.1-0.1-0.2-0.3-0.3C979.7,1170.7,979.8,1170.8,979.8,1170.8z"/> <path fill="#E0B889" d="M999.9,1163.7c0.5-0.4-0.8-0.1-1.9,0.9c0,0,0,0,0,0C998.5,1164.2,999.2,1164,999.9,1163.7z"/> <path fill="#E0B889" d="M978.7,1169.6C978.8,1169.7,978.8,1169.7,978.7,1169.6c0.1,0.1,0.2,0.2,0.3,0.2 C979.1,1169.8,978.9,1169.7,978.7,1169.6z"/> </g> <path fill="#E0B889" d="M1471.5,1242.6c-6.6-10.2-21.2-15.7-32.2-8.4c-30.2,19.9-62,37.2-95.2,51.5c-0.4,0.2-0.8,0.4-1.2,0.5 c-0.2,0.1-0.5,0.2-0.9,0.4c-2.1,0.9-4.2,1.7-6.3,2.6c-4.2,1.7-8.4,3.3-12.6,4.9c-8.5,3.2-17,6.2-25.6,9 c-17.2,5.6-34.6,10.6-52.2,14.7c-17.6,4.2-35.4,7.5-53.3,10.2c-1.8,0.3-3.7,0.5-5.5,0.8c-0.8,0.1-1.7,0.2-2.5,0.3 c-4.8,0.6-9.5,1.1-14.3,1.6c-9,0.9-18,1.6-27,2.1c-36.1,2-72.4,0.9-108.2-3.4c-1.1-0.1-2.2-0.3-3.4-0.4c-0.1,0-0.2,0-0.3,0 c-2.4-0.3-4.8-0.7-7.1-1c-5.2-0.8-10.5-1.7-15.7-2.9c-5.2-1.1-10.3-2.4-15.3-4c-2.2-0.7-4.4-1.5-6.6-2.3c-0.9-0.3-1.4-0.5-1.7-0.6 c-1.1-0.5-2.1-1.1-2.3-1.2c-15.1-7.4-27.5-19.1-41.9-27.7c-1-3.9-2.9-7.4-6.1-10.1c-4.6-4-9.3-8-13.8-12.1c-1-1.6-1.8-3.3-2.8-4.9 c-0.1-0.2-0.2-0.4-0.3-0.5c0,0,0-0.1,0-0.1c-1.3-3.8-2.5-7.6-3.5-11.4c-1.9-7.2-3.3-14.6-5.4-21.7c-2.4-8-5.7-15.7-9.2-23.3 c-5.7-12.6-12.8-24.5-18.8-36.9c-0.8-1.6-1.6-3.3-2.3-4.9c-0.1-0.4-0.1-0.8-0.2-1.3c0-0.2,0-0.3-0.1-0.5c0-0.3-0.1-0.6-0.1-1 c-0.2-1.9-0.5-3.8-0.7-5.8c-0.5-3.8-0.9-7.7-1.3-11.6c-0.2-1.7-0.4-3.4-0.8-5c1.2-2.8,1.8-5.8,1.3-9c-3.4-26.5-3.7-53.4-0.8-80 c0.1-1.2,0.3-2.5,0.4-3.7c0.1-0.6,0.2-1.2,0.2-1.9c0.3-2.7,0.3-2.5-0.1,0.7c-0.2-2.8,1-6.5,1.4-9.2c1.1-6.7,2.5-13.4,4.1-20.1 c2.9-12.5,6.5-24.9,10.9-37c1-2.7,2.1-5.4,3.1-8.1c0.1-0.1,0.1-0.3,0.1-0.4c0.1-0.1,0.1-0.3,0.2-0.4c0.5-1.1,0.9-2.1,1.4-3.2 c2.7-5.8,5.7-11.4,9-16.8c1.7-2.7,3.4-5.4,5.3-7.9c0.2-0.3,0.4-0.7,0.7-1.1c0.7-0.9,1.6-1.8,2.3-2.6c4.5-5.3,9.4-10.2,14.5-15 c19.5-18.5,40.3-35.7,60.6-53.3c23.7-20.5,47.5-40.8,71.5-61c6.4-5.4,7.9-15.3,5.8-23c-10.6-1-21.3-3.1-31.5-6 c-23.3-6.4-49-16.5-63.7-36.7c-6.8-9.4-9.3-22.2-5.7-33.3c2.7-8.3,7.6-15.3,13.5-21.3c-1-2.4-2.1-4.7-3.4-7 c-2.8,1.1-5.6,2.7-8.2,4.9c-13,10.6-23.9,24.9-28.7,41.1c-5.1,17.3-2,36.9,8.5,51.6c10.2,14.2,24.1,24.1,40.5,29.9 c-30.1,25.5-60.1,51.2-89,77.8c-10.6,9.8-20.3,20.3-28.6,32c-8.3,11.6-14.3,24.5-19.7,37.7c-10.2,24.9-16.8,51.3-20.4,77.9 c-4.1,29.8-5.1,59.5-1.9,89.4c-3.1,3.8-4.9,8.6-4.6,14c0.7,13.3,3.9,25.6,8.5,37.4c1,7.1,2.1,14.1,3.3,21.1 c2.6,15.1,5.2,30.5,10.1,45.1c7.9,23.7,22.9,42,40.5,58.6c3.1,3.7,6.5,7.1,10.2,10.2c1.1,6.6,4.6,12.6,11,15.6 c16.9,7.8,30.2,21.1,46.3,30.2c18,10.1,38.2,15.3,58.5,18.4c38.2,5.8,76.8,8.4,115.4,7.2c4.6-0.1,9.2-0.3,13.8-0.6 c1.6-1.3,3.5-2.2,5.4-2.7c26.5-6.8,53.3-12.4,80.1-18.3c23.7-5.3,47.4-10.9,70.6-18.1c5.8-1.8,11.6-3.6,17.3-5.8 c0.7-0.3,4.3-1.7,4.1-1.6c2.1-0.9,4.3-1.9,6.4-3c8.8-4.3,17.2-9.3,25.4-14.7c32.7-21.4,61.5-47.7,98.2-62.6 c8.5-3.5,17.7,3.8,20.2,11.5c0.4,1.4,0.6,2.7,0.7,4C1475.1,1261.2,1476.9,1251,1471.5,1242.6z"/> <g> <path fill="#E0B889" d="M930.1,629.5c-0.2-0.1-0.4-0.3-0.8-0.6c0,0,0,0,0,0C929.6,629.2,929.9,629.3,930.1,629.5z"/> <path fill="#E0B889" d="M1360,594.8c-2-18.2-6.1-35.8-12.4-53c-3.3-8.9-6.9-17.7-10.8-26.3c-0.2-0.5-0.3-0.8-0.5-1 c-0.1-0.2-0.1-0.4-0.2-0.6c-0.3-0.7-0.5-1.5-0.8-2.2c0.5-1.6,0.9-3.3,1.1-5.1c2.4-18-12.3-33.5-27.1-41.2 c-14.6-7.6-31.3-12.2-47.3-15.8c-34.1-7.6-68.9-8.5-103.4-3.5c-16.2,2.3-31.5,7-47.2,11.2c-2.1,0.6-4.2,0.9-6.2,1.4 c-0.7,0.1-1.3,0.1-2,0.1c-4.5,0.2-8.9,0-13.3-0.4c-8.3-0.8-16.5-1.8-24.7-2.4c-33.4-2.4-67-0.1-99.9,5.6 c-16.2,2.8-32.1,6.7-47.7,11.5c0,0,0,0,0,0.1c0.4,9.3-7.9,15.8-16.4,16.4c-0.7,0.1-1.8,0-2.9,0.1c-0.1,0.1-0.4,0.2-0.9,0.3 c-2.2,0.4-4.3,0.8-6.4,1.3c-2,0.5-4,1.1-6,1.7c-0.7,0.3-1.5,0.5-2.2,0.8c-3,1.8-6.2,3.2-9.1,5.2c-0.3,0.2-0.5,0.3-0.6,0.4 c-0.4,0.4-0.8,0.8-0.9,0.9c-1.2,1.1-2.3,2.2-3.4,3.4c-0.3,0.4-1.3,1.2-2,2c-0.1,0.2-0.2,0.6-0.6,1.2c-0.3,0.5-0.7,1-1,1.4 c-1.6,2.5-3,5-4.3,7.7c-0.2,0.4-0.3,0.7-0.5,0.9c-0.1,0.4-0.2,0.8-0.3,1c-0.5,1.4-1,2.9-1.5,4.3c-0.9,2.8-1.6,5.7-2.2,8.5 c-0.3,1.6-0.6,3.2-0.8,4.8c-0.1,0.6-0.1,1.1-0.2,1.7c-0.3,3.2-0.5,6.5-0.6,9.8c-0.2,6.9,0.2,13.8,0.9,20.6c0,0.4,0.1,0.9,0.2,1.3 c0-0.7,0.2-0.6,0.2,2c0.2,1.3,0.4,2.6,0.6,3.9c0.6,3.4,1.2,6.7,1.9,10c1.5,6.8,3.3,13.6,5.5,20.2c1,3,2,6,3.1,9 c0.5,1.4,1.1,2.9,1.7,4.3c0.1,0.2,0.2,0.5,0.3,0.7c0,0.1,0.1,0.2,0.2,0.4c2.4,5.3,4.9,10.5,7.8,15.5c0.9,1.5,1.4,3,1.8,4.6 c4.9,5.1,10.4,9.8,16,14.3c13.3,10.8,26.9,21.1,42.6,27.8c0.4,1.3,1,2.6,1.8,3.8c2.8,4.3,7,8.4,12.3,9.4l10,2 c5.4,1.1,10.9,0.8,15.8-2.1c1.2-0.7,2.4-1.6,3.4-2.6c-2.7-9-8.5-17.8-14.7-24.9c-7.9-9.2-16.7-17.5-24.7-26.6 c-1.5-1.7-2.7-3.6-3.4-5.5c-0.8-0.5-1.6-1.1-2.4-1.7c-1.4-1-2.8-2-4.2-3c-0.4-0.3-0.8-0.6-1.2-0.9c0.5,0.4,0.3,0.3-0.8-0.6 c0,0-0.1-0.1-0.1-0.1c0,0,0.1,0,0.1,0.1c0,0,0,0,0,0c-5.4-4.3-10.8-8.5-16-13.1c-2.4-2.1-4.7-4.3-6.8-6.7 c-0.1-0.1-0.4-0.4-0.7-0.7c0,0,0,0,0-0.1c-0.9-1.6-2-3.1-2.9-4.6c0-0.1-0.1-0.2-0.2-0.4c-0.1-0.4-0.3-0.8-0.3-0.9 c-0.4-1.6-0.8-3.3-1.2-5c-0.1-0.6-0.1-1.2-0.2-1.9c-0.1-2.1-0.1-4.2-0.1-6.3c0-3.9,0.3-7.8,0.6-11.7c0.1-1.8,0.3-3.6,0.5-5.4 c0.1-0.9,0.2-1.8,0.3-2.7c0-0.2,0.2-1.4,0.3-2.1c0-0.2,0.1-0.4,0.1-0.5c0.2-0.9,0.3-1.8,0.5-2.7c0.3-1.8,0.7-3.5,1-5.3 c0.8-3.8,1.8-7.6,2.9-11.3c0.5-1.7,1.1-3.4,1.7-5.1c0.4-1.1,1.7-4,1.1-2.6c1.3-2.7,2.6-5.4,4.2-8.1c0.9-1.5,1.8-3,2.8-4.5 c0.4-0.6,0.9-1.2,1.3-1.9c0.2-0.3,0.9-1.2,1.2-1.6c0.7-0.8,1.5-1.6,1.7-1.9c1.2-1.3,2.4-2.5,3.7-3.8c0.2-0.2,2.2-2,3.3-2.9 c0.6-0.4,1.3-0.9,1.9-1.3c1.5-1,2.9-1.9,4.5-2.7c1.2-0.6,6.8-3.1,1.9-1.1c0.8-0.3,1.5-0.6,2.2-1c7.7-2.1,15.5-4,23.4-5.7 c7.3-1.5,14.6-2.9,22-4c0.9-0.1,1.8-0.3,2.7-0.4c0.1,0,0.6-0.1,1-0.1c0.3,0,0.6-0.1,0.7-0.1c0.9-0.1,1.8-0.2,2.7-0.3 c4.1-0.5,8.3-0.9,12.5-1.3c15.1-1.3,30.4-1.8,45.6-1.4c15.3,0.4,30.4,2.7,45.6,3.6c17.5,1,32.9-5.1,49.5-9.2 c7.5-1.9,15.1-3.4,22.8-4.6c0.7-0.1,1.3-0.2,2-0.3c1.7-0.2,3.3-0.4,5-0.6c3.9-0.4,7.7-0.7,11.6-0.9c15.2-0.9,30.5-0.4,45.6,1.4 c0.6,0.1,1.2,0.1,1.8,0.2c0.2,0,0.4,0.1,0.8,0.1c2.1,0.3,4.1,0.6,6.2,1c3.7,0.6,7.4,1.4,11.1,2.2c3.8-2,8.3-2.6,12.6-1.8 c9.4,1.8,18.1,7.4,25.5,13.6c0.1,0.1,0.3,0.1,0.4,0.2c1,0.5,1.9,1.1,2.8,1.7c0,0.3,0,0.6,0,1c0.9,0.8,1.7,1.6,2.6,2.4 c18.7,17.6,33.4,40.7,44.3,63.8c5.6,12,11.6,25.9,14.3,40C1357.7,606.1,1360.7,600.9,1360,594.8z"/> </g> <path fill="#E0B889" d="M1234.7,811.2c-6.7-8.4-22.1-7.6-29,0c-8.2,8.9-7.2,20,0,29c0.1,0.1,0.1,0.2,0.2,0.3 c0.6,0.9,1.2,1.7,1.8,2.5c1.4,1.9,2.7,3.9,3.9,6c2.5,4,4.8,8.2,6.8,12.5c0,0,0.3,0.7,0.7,1.4c0.2,0.6,0.6,1.5,0.7,1.7 c0.9,2.2,1.7,4.4,2.4,6.7c1.6,4.8,2.9,9.6,3.9,14.5c0.5,2.3,0.9,4.7,1.3,7c0.1,0.5,0.1,0.8,0.2,1c0,0.7,0,1.5,0.1,2.2 c0.4,4.7,0.6,9.5,0.4,14.2c-0.1,2.4-0.2,4.7-0.4,7.1c-0.1,1.1-0.2,2.1-0.3,3.2c0,0.2,0,0.3,0,0.4c-0.8,4.8-1.8,9.6-3.1,14.3 c-2.8,10.3,3.5,22.8,14.3,25.2c10.8,2.5,22.2-3.2,25.2-14.3C1276.7,899,1265,849,1234.7,811.2z"/> <path fill="#FFFFFF" d="M1049.9,542.7c0.1-22.5-25.6-39.6-46.6-33c-2.7,0.8-5.2,2.1-7.5,3.5c-12.3-0.4-24.7,3.9-33.2,13.7 c-16.3,18.7-14.8,45.7,1,64.2c14.8,17.3,43.2,25,63.6,13.4c3-1.7,5.8-3.9,8.1-6.3c0.8-0.3,1.5-0.7,2.2-1.1 C1056.7,586.6,1061.8,560.1,1049.9,542.7z"/> <path fill="#FFFFFF" d="M1251.7,526.8C1251.7,526.8,1251.7,526.8,1251.7,526.8c-0.3-1.6-0.7-3.2-1.3-4.7 c-3.3-9.1-9.2-16.3-17.3-21.6c-0.1-0.1-0.2-0.1-0.3-0.2c-6.1-5.5-13.3-9.7-21.6-11.4c-4.9-1-9.8-0.6-14,1.2 c-16.3-1-33.2,8.2-40.9,23.4c-0.5,1-1,2.1-1.4,3.1c-4.9,2-9.2,5.2-12.4,9.2c3.5,11.1,5.2,22.5,2.6,34.1c-0.5,2.2-2.9,3.4-5,3.1 c3,3.5,7.1,5.7,11.7,7c0.7,2.1,1.6,4.2,2.8,6.2c15.4,26.9,53.5,26.9,74.5,7.1c1.2-1.2,2.4-2.4,3.4-3.6c8.4-1.4,16.2-6.3,20.8-14.1 C1260.7,553,1257.8,539.3,1251.7,526.8z"/> <path fill="#FFFFFF" d="M1046,1126.8c-1.7-1.5-3.7-2.9-5.9-3.9c-3.5-2.6-7.8-4.2-12.5-4.4c-3.1-0.1-6.1-0.2-9.2-0.3 c0-0.7,0-1.5,0-2.2c0.1-9.1-6.7-18.7-15.8-20.7c-8-1.8-17.2,0.5-22.4,7.1c-2.4,2.4-4.3,5.5-5.2,9.1c0,0.1-0.1,0.3-0.1,0.4 c-4.9,9.6-9.7,19.4-13.9,29.3c-6.8,15.9-8.8,35.1,5.3,48c9.1,8.4,21.5,10.1,32.4,6.4c1.5,1.2,3.1,2.1,5,2.7c2.6,1.3,5.3,2,8.3,1.9 c5.6-0.2,11.3-2.1,15.2-6.3l3.4-4.4c0.3-0.5,0.5-1,0.8-1.5c2.1-1.6,4-3.6,5.3-6c1.6-2.5,2.4-5.1,2.6-8c0.6-2.7,0.5-5.4-0.2-8.1 c2.4-2.9,4.7-5.8,7.1-8.7C1053.1,1148.5,1055.2,1135.2,1046,1126.8z"/> <path fill="#FFFFFF" d="M1223.4,1160.5c-6.2-4.8-17-6.7-23.9-1.7c-1.9,1.4-3.9,2.4-5.9,3.7c-1.2,0.3-2.5,0.8-3.7,1.1 c-0.1,0-0.2,0-0.3,0.1c-0.8,0.1-2.1,0.2-2.5,0.2c-0.4,0-2.3-0.3-2.9-0.2c-0.2,0-0.4-0.1-0.6-0.1c-1.4-0.3-2.9-0.5-4.3-0.6 c-2.8-4-6.9-7.1-11.7-8.2c-11.7-2.7-22.9,3.5-26.4,15c-4,12.8-6.9,26.7-3.2,40c3.8,13.6,14.2,25.8,28.1,29.7 c2.2,0.6,4.5,1,6.8,1.1c2.2,1.8,4.8,3.1,7.7,3.8c11.3,2.6,23.3-3.4,26.4-15c0.6-2.2,1.2-4.3,2-6.5c0.3-0.9,0.6-1.7,1-2.6 c0,0,0-0.1,0-0.1c2-4,4.1-8,6.7-11.8c0.5-0.8,1-1.5,1.6-2.2c0,0,0,0,0.1-0.1c2.2-2.6,4.3-5.3,6.3-8.1c3.1-4.4,5.7-9.5,6.6-14.9 C1232.4,1174.3,1230.8,1166.3,1223.4,1160.5z"/> <path fill="#FFFFFF" d="M1405.2,1143.1c-0.2-9.1-6.5-18.6-15.8-20.7c-8.9-2-18.2,1.1-23.4,8.6c-0.4,0.3-0.9,0.5-1.3,0.8 c-2.9,1.5-5.9,2.7-8.8,4.4c-2.7,1.5-5.5,3.4-7.8,5.6c-1.5-0.2-3-0.3-4.5-0.3c-11.2,0.1-22,9.8-21.5,21.5c0.4,9,5.9,17.1,14,20.2 c1.2,1.2,2.5,2.2,3.6,3.1c1,0.8,2,1.4,3,2c0.2,0.5,0.5,0.9,0.8,1.3c3.9,6.4,11,10.8,18.6,10.6c12-0.3,23.2-4.8,31.7-13.3 c5.2-5.2,7.3-13.3,5.6-20.5C1403.2,1159.2,1405.3,1151.4,1405.2,1143.1z"/> <path fill="#FFFFFF" d="M1474.9,1056c-0.7-12.8-18.7-15.8-22.6-3.1c-3.6,11.8-7.2,23.6-10.9,35.4c-1.1,3.7-0.4,6.9,1.3,9.3 c-5.8,6.1-2.4,16.5,5.5,18.8c2,0.6,4.1,1.2,6.1,1.8c10.3,3,16.4-7.9,13.5-15.6C1475.4,1088.8,1475.7,1071.7,1474.9,1056z"/> <g> <path fill="#FFFFFF" d="M1563.6,1963.7c-0.3-25.7-2.3-51.3-5.5-76.7c0.5-8.6-0.7-16.7-3.6-24.9c0-0.2-0.1-0.4-0.1-0.6 c0,0-0.1,0-0.1,0c-0.5-1.4-1.1-2.9-1.7-4.3c-2-4.6-6.4-7.3-11.3-8.3c-7.5-14-16.4-27.3-26.7-39.6c-0.1-6.1-3-12-8.7-15.2 c-2.8-1.6-5.4-3.3-8.1-5.2c-0.5-0.4-1-0.8-1.5-1.2c-1.4-1.2-2.7-2.4-4-3.6c-4.5-4.3-8.7-8.9-12.7-13.6 c-8.5-10.1-16.5-20.7-25.9-30c-5.6-5.6-11.7-10.6-18-15.4c-3-2.3-6-4.5-9.2-6.6c-1.4-1-2.9-1.9-4.4-2.8c-0.6-0.4-4.4-3.3-3-2.1 c-0.9-0.8-1.8-1.7-2.6-2.6c0.3,0.2-1.5-2.5-1.7-2.8c-1.9-3.2-3.5-6.4-5.2-9.7c-3.9-7.3-7.8-14.6-11.8-21.9 c-0.7-1.3-1.6-2.5-2.7-3.6c-8-19.1-16.2-38.1-23.2-57.6c-2-5.5-3.8-11-5.3-16.7c-0.7-2.6-1.4-5.3-1.9-8c-0.3-1.5-0.6-3-0.9-4.4 c0-0.3-0.3-2.1-0.5-3c-0.1-1-0.3-2.9-0.3-2.9c-0.1-1.2-0.2-2.4-0.2-3.5c-0.1-2.9-0.1-5.9,0-8.8c0.1-1.5,0.2-2.9,0.4-4.4 c0-0.1,0-0.1,0-0.2c0.1-0.3,0.2-0.7,0.3-1.2c0.6-2.9,1.4-5.8,2.3-8.6c3.2-10.2-5.8-24.2-17.4-22.8c-5.5,0.7-11.1,1.3-16.6,2 c-9.8,1.2-17.9,7.3-18,18c-0.3,19.1-0.7,38.2-2.7,57.1c-0.2,1.6-0.4,3.3-0.6,4.9c0,0.3-0.1,1.2-0.2,1.6c0,0,0,0,0,0c0,0,0,0,0,0 c0,0,0,0,0,0.1c-0.2,1.3-0.4,2.7-0.6,4c-0.8,4.8-1.6,9.5-2.7,14.3c-2,9.1-4.8,17.9-8,26.7c-0.1,0.2-0.3,0.7-0.4,1.1 c-0.3,0.6-0.5,1.2-0.8,1.9c-0.9,1.9-1.8,3.8-2.7,5.7c-2.2,4.2-4.6,8.4-7.2,12.4c-1.3,2-2.8,3.9-4.1,5.9c0,0,0,0,0,0 c0,0,0,0-0.1,0.1c-0.7,0.8-1.3,1.6-2,2.4c-3.2,3.7-6.5,7.3-10.1,10.6c-3,2.8-6.1,5.4-9.3,8c2.8-2.3-1.6,1.2-2.5,1.8 c-2.1,1.5-4.2,3-6.4,4.4c-7.6,5-15.6,9.4-23.7,13.4c-4.5,2.2-9,4.3-13.6,6.3c-0.2,0.1-0.4,0.2-0.5,0.2c-1.3,0.5-2.6,1.1-3.9,1.6 c-2.4,1-4.9,2-7.4,2.9c-9.8,3.8-19.7,7.3-29.7,10.7c-1.4,0.5-2.8,1.2-4.1,2c-4,0.8-8.1,1.5-12.1,2.3c-4.6,0.8-9.1,1.6-13.7,2.3 c-2.9,0.4-5.8,0.9-8.6,1.3c-0.5,0.1-2.1,0.3-2.6,0.4c-1.4,0.2-2.8,0.4-4.1,0.5c-6.1,0.8-12.2,1.4-18.3,2.1 c-24.5,2.4-49,3.6-73.6,3.6c-2.2,0-4.5,0.5-6.5,1.3c-1.3-0.2-2.5-0.4-3.8-0.6c-16.6-2.7-33.2-5.4-49.7-8.6 c-32.8-6.2-65.5-13.9-96.6-26.2c-1.8-0.7-3.5-1.4-5.3-2.1c-0.4-0.2-2.6-1.1-3-1.3c-3.9-1.7-7.7-3.5-11.5-5.3 c-6.2-3-12.3-6.3-18.2-9.8c-6.2-3.7-12.2-7.6-18.1-11.7c-1.3-0.9-2.5-1.8-3.7-2.7c-0.4-0.3-2.8-2.1-3.3-2.5 c-0.2-0.1-0.3-0.3-0.4-0.3c-0.8-0.6-1.6-1.3-2.4-1.9c-1.4-1.1-2.8-2.3-4.1-3.5c-6-5.1-11.7-10.6-17.1-16.4c-2.8-3-5.5-6-8-9.1 c-0.5-0.6-2.5-3.2-2.6-3.3c-0.8-1.1-1.6-2.2-2.4-3.2c-4.6-6.3-8.7-13-12.4-19.8c-1.9-3.6-3.6-7.2-5.3-10.9c0-0.1-0.1-0.2-0.2-0.4 c-0.2-0.5-0.5-1.4-0.6-1.6c-0.8-2.1-1.6-4.3-2.4-6.4c-2.3-6.6-8-12-14.8-13.1c-10.6-22.3-24.3-43.3-40.8-62.2 c-7.5-8.6-23.1-6.1-28.3,3.6c-0.7,1.3-1.5,2.6-2.3,3.9c-0.2,0.3-0.3,0.6-0.4,0.7c-0.1,0.1-0.2,0.3-0.4,0.4 c-0.9,0.9-1.7,1.9-2.6,2.7c-0.2,0.2-1.7,1.5-2.3,2c-0.7,0.4-1.5,1.1-1.7,1.2c-1.3,0.8-2.6,1.5-4,2.2c-0.2,0.1-0.4,0.2-0.5,0.3 c-0.2,0-0.4,0.1-0.7,0.2c-1.5,0.4-2.9,0.8-4.4,1.2c-8.7,2-14,11.3-12.9,19.7c1,7.1,6,12.8,12.6,14.8c2.5,1.5,5.5,2.4,8.6,2.5 c0.1,2.8,0.9,5.5,2.7,7.8c20.7,27.3,38.3,56.8,52.5,88c0.8,1.8,1.7,3.7,2.5,5.5c0.2,0.4,1.8,4.2,1.9,4.5 c1.4,3.4,2.8,6.9,4.2,10.4c3.1,8,6,16.2,8.7,24.4c5.3,16.4,9.7,33.1,13.2,50c0.9,4.6,4.2,8.4,8.4,10.8c-0.8,2.9-0.9,6.1-0.1,9.3 c4.9,20.1,7.2,36.4,9,55.3c1.8,19,2.6,38,3.4,57.1c0.4,9.6,1,19.2,0.5,28.7c-0.1,2.5-0.3,5-0.6,7.5c0,0.3-0.1,0.6-0.2,1 c-0.2,1.3-0.5,2.5-0.7,3.8c-0.8,3.9-2,7.6-3.4,11.3c-0.2,0.7-0.5,1.3-0.8,1.9c0,0.1-0.3,0.6-0.7,1.5c-1,2-2,4.1-3.1,6 c-1.9,3.5-3.9,6.9-6.1,10.3c-4.9,7.7-10.4,15-15.9,22.3c-5.7,7.6-1.5,20.4,6.5,24.6c8.7,4.6,17.2,2.1,23.2-4.7 c-0.7,1.8-1.5,3.5-2.2,5.3c-3.6,8.7,3.9,20.2,12.6,22.1c10.5,2.4,18.3-3.2,22.1-12.6c3-7.4,6.2-14.9,9.3-22.3 c4.9,1.3,10.2,0.8,14.9-2.2c0.1-0.1,0.1-0.1,0.2-0.2c0.4,0.2,0.7,0.5,1.1,0.7c5.5,2.9,12,3,17.3,0.4c2.5,7,8.6,12.7,16.8,12.4 c8.6-0.4,14.9-5.7,17.2-13.3c2.4,2.3,5.6,3.9,9.5,4.4c6.7,0.9,13.4-2,17.2-7.4c0.1,0.3,0.3,0.6,0.4,0.9 c3.3,6.3,11.2,9.5,17.9,8.6c0.9-0.1,1.9-0.4,2.9-0.7c2.6,1.8,5.5,3.1,8.3,3.4c6.2,0.8,12.6-1.7,16.5-6.5c3,1.9,6.4,3.1,9.7,2.9 c10.6-0.5,17-7.9,18-18c0.1-0.9,0.2-1.8,0.3-2.7c53.1,14.2,108.5,6.1,161.9-2.7c13.4-2.2,26.8-4.4,40.2-6.6 c1.1,1.3,2.5,2.4,4,3.4c19.2,12.4,42.7,14.5,65,13.8c21.2-0.6,42.9-1.9,63.7-6.4c3-0.6,6-1.4,8.9-2.3c4.1,0,8.3,0,12.4-0.1 c12.5-0.1,25.3-0.4,37.8-2.1c1.9,2.6,4.4,4.7,7.6,6c7.5,3.2,18.8,0.8,22.5-7.4c0.8-1.7,1.6-3.5,2.3-5.2c2.2,1,4.4,1.7,6.7,2 c1.6,3.9,4.6,7,9.2,9c0.1,0.1,0.3,0.1,0.4,0.2c0.2,0.1,0.4,0.3,0.7,0.5c10.7,6.6,22.6,10.3,34.8,11.4c0.3,0.7,0.6,1.4,1,2.1 c-0.8,3.7-1.6,7.3-2.4,11c-2.2,9.1,2.9,19.9,12.6,22.1c9.2,2.1,19.8-2.8,22.1-12.6c0.3-1.1,0.5-2.2,0.8-3.3 c7.3,5.5,17.1,4.6,24.3-0.6c-3.1,8.1-0.7,18.2,7.4,22.5c8.4,4.4,19.9,2.4,24.6-6.5C1564.2,2029.3,1564,1995.4,1563.6,1963.7z"/> <path fill="#FFFFFF" d="M1310.7,1613c0-0.3,0-0.1-0.2,1.6c0,0,0,0,0,0C1310.6,1614.1,1310.6,1613.5,1310.7,1613z"/> </g> <path fill="#CEC1B3" d="M1046.6,531.1c-2.2-6.7-7.8-11.7-14.4-12.9c-0.8-0.6-1.7-1.1-2.6-1.5c-12.5-5.5-24.8-6.6-38.2-3.5 c-11.1,2.6-21.6,7.9-31.6,13.3c-6.7,3.6-10.7,13-8.3,20.3c2.6,8,9.1,12.6,17.4,13.2c21.9,1.6,44.1-0.8,65.2-6.8 C1043.1,550.7,1049.6,540.4,1046.6,531.1z"/> <path fill="#CEC1B3" d="M1242.8,501.3c-1.8-1.6-4-2.9-6.5-3.8c0,0-0.1-0.1-0.1-0.1c-14.2-12.3-31.1-16.7-49.6-13.7 c-2.1,0.3-4,1.3-5.8,2.6c-6.9-0.8-14.1,1.6-17.7,8.4c-4.2,7.9-2.7,20.4,6.5,24.6c15.2,7,30.6,10,46.7,9.3c3.3,1.2,6.7,2.3,10,3.5 c8.9,3.1,20.1-3.5,22.1-12.6c0.3-1.1,0.4-2.2,0.5-3.3C1244.6,512.8,1242.5,506.8,1242.8,501.3z"/> <path d="M675.9,489.3c-40.2-13.9-82.6-27.5-125.8-24.3c-33.3,2.4-67.7,15.5-90.3,40.9c-47.7,53.7-18.7,138.2,42.9,166.4 c38.2,17.5,83,16.4,121.7,1c4-1.6,6.8-5.3,5.6-9.8c-1-3.8-5.8-7.2-9.8-5.6c-31.1,12.4-66.1,15.4-98.1,4.9 c-28.6-9.3-52.3-30.4-63.4-58.5c-10.8-27.3-9.4-58.1,8.4-82.1c17.7-23.8,47.8-37,76.6-40.6c43.8-5.4,87.2,9.1,128,23.1 C681.4,508.1,685.6,492.7,675.9,489.3z"/> <path d="M619.2,523.2c-11.1,3.1-21.3,8.6-30,15.9c-1.6-3.8-5.5-5.3-9.5-4.6c-15.7,2.5-32.9-7.7-38.5-22.6c-1.5-4-5.4-6.8-9.8-5.6 c-3.9,1.1-7.1,5.8-5.6,9.8c8.2,21.7,29.3,35.2,51.9,34.3c-14.5,17.3-22.5,40.1-19.8,62.8c0.5,4.3,3.3,8,8,8c3.9,0,8.5-3.7,8-8 c-3.8-32.8,17.6-65.8,49.6-74.7C633.4,535.8,629.2,520.4,619.2,523.2z"/> <path d="M1571.2,1913.2c2.1-1.5,3.6-3.8,3.2-6.3c-11.9-89.2-24.2-182.1-71.5-260.7c-20.2-33.6-46.2-63.8-78.1-86.8 c-15.9-11.5-33.2-20.7-51.5-27.6c-18.3-6.9-37.6-11-55.3-19.2c-9.5-4.4-18.5-9.9-25.8-17.4c-8-8.2-13.4-18.4-18.1-28.7 c-4.6-10.2-8.5-20.7-13.1-30.9c-5-11.1-11.2-21.3-18.5-31c21-6.4,41.7-13.5,62.2-21.4c32.6-12.5,64.5-27.3,93.6-46.8 c28-18.8,52.5-41.8,72.1-69.4c18.3-25.8,31.8-55.1,40.8-85.4c18.5-62.7,17.4-129.9,0.6-192.8c-18-67.5-52.8-129.8-95.1-185 c-10.3-13.5-21.1-26.6-32.2-39.4c-1.2-1.3-2.5-2.1-3.8-2.4c-5.9-7.9-11.7-15.8-17.6-23.6c-3.9-5.3-7.9-10.6-11.8-15.9 c-3.3-4.5-8.6-9.8-10.2-15.3c-1.5-5.4,2.4-11.7,4.3-16.6c0.8-2.1,1.6-4.3,2.4-6.4c54.2-25.7,114.9-57.2,135.8-117.7 c6.1-17.6,8-36.7,7.5-55.2c-0.5-18.2-1.9-38.2-8.2-55.4c-12.3-33.3-45.5-51-78.5-57.7c-21.6-4.4-43.8-5.7-65.7-7.1 c-22.7-1.5-45.4-2.4-68.1-2.8c-49.5-49.7-117.4-79.8-187.2-84.8c-87.2-6.3-167.9,33.9-243.6,72.4c-39.7,20.2-78.5,42-116.4,65.2 c-0.3-2-1.4-4-3.7-5.3c-25.3-15.5-57-16.6-85.8-19.4c-28.6-2.8-57.6-4.4-86.3-2c-28.2,2.4-56.1,8.7-81.2,21.8 c-23.6,12.3-43.5,30.7-58,53c-14.2,21.9-22.8,47.2-25.3,73.1c-2.7,28,3.1,55.6,14.7,81.1c23.3,51.1,68.1,94,119.3,116.9 c53.9,24.1,116.4,26.3,171,3c6.7-2.9,13.2-6.1,19.5-9.7c2.3-1.3,3.5-3.2,3.8-5.2c1.4,19.3,2.2,38.7,2.3,58.1 c0.1,39-2.6,78.1-9.7,116.5c-7,38.2-19.3,74.9-29.9,112.2c-9.9,34.9-17.6,70.9-16.1,107.4c1.2,29.5,7.9,58.7,19.2,86 c17.3,41.8,44.1,78.8,76.8,109.6c-20.2,42.3-14.6,91-31.9,134.1c-8.4,20.9-23.4,38.3-39.8,53.4c-16,14.8-33.5,28.2-51,41.2 c-0.4,0.3-0.7,0.5-1.1,0.8c-2-0.1-3.9,0.6-5.5,2.2c-0.8,0.8-1.5,2-1.9,3.2c-67.2,49.2-138.8,92.2-202.4,146.2 c-35.5,30.1-67.9,63.9-94,102.5c-4.2-2.2-10-1.3-11.1,4.7c-12.7,65.4-16.5,132.3-11,198.6c0.8,10.2,16.9,10.3,16,0 c-5.2-62.6-2.2-125.8,9.2-187.6c2.9,0.5,6-0.5,8-3.5c47.4-71.7,116.8-124.4,186.6-172.8c35.8-24.8,72.1-48.9,107.3-74.6 c41.7,35.1,70.2,85.3,90.8,135c23,55.2,36.2,114.5,38.4,174.3c0.6,15.8,0.9,31.8-0.7,47.5c-1.4,13.7-5.2,27.7-15.6,37.4 c-3,2.8-3,6.3-1.5,9c-0.7,0.6-1.4,1.4-2,2.3c-14.7,25.1-19.7,54.4-14.7,82.9c0.7,4.3,6,6.7,9.8,5.6c4.5-1.2,6.3-5.6,5.6-9.8 c-4.2-24.3,0.6-49.4,13.1-70.6c1.6-2.7,1.4-5.3,0.2-7.4c0.3-0.2,0.5-0.4,0.7-0.6c21.2-19.7,21.4-51.6,21.3-78.4 c-0.1-31.3-3.1-62.5-8.8-93.3c-11.4-61.5-34.1-121.5-67-174.8c-15.6-25.3-34.1-49.3-56.7-68.8c13.3-10,26.5-20.2,39.1-31 c3.4-2.9,6.8-5.9,10.1-9c38.3,38.1,58,90.7,94.4,130.5c37.5,41,88,69,141.2,84c61.9,17.5,127.4,17.2,190.5,7.4 c52.1-8,107.1-21.2,149.5-54.1c20.3-15.8,36.2-36.2,45.4-60.3c10.7-28,11.7-58.9,10.7-88.6c-0.2-7.6-0.6-15.2-1-22.7 c0-0.3,0-0.5-0.1-0.7c7.5,2.7,15.2,5.1,22.7,7.5c3.8,1.2,7.6,2.4,11.3,3.7c-0.1,0.5-0.1,1-0.1,1.5c0.7,51.1,15.8,101.9,43.5,144.8 c26.3,40.8,64.4,70,98.3,104c18.3,18.3,34.8,38.4,45.6,62.1c1.1,2.5,3.8,3.8,6.5,3.9c2.1,14.2,4,28.4,5.9,42.6 c-2.5,1.7-4.2,4.6-3.4,8.4c6.1,28.3,8.1,57.2,6.4,86.1c-0.6,10.3,15.4,10.2,16,0C1578.5,1968.9,1576.6,1940.8,1571.2,1913.2z M1345.6,741.6l29.6,39.8c1.5,2.1,3.7,3.5,6,3.9c41,48.5,76.7,102.5,99.8,161.8c23.4,60,33.8,125.1,23.8,189.1 c-4.2,26.6-11.6,52.6-22.5,77c-4-2.4-8.4-0.6-10.9,2.9c-44.7,61.7-115.5,97.5-187,118.7c-19.4,5.8-39.1,10.6-58.9,14.9 c-1.6-0.9-3.5-1.2-5.7-0.6c-65.7,17.6-136.5,22.5-203.7,10.4c-30.8-5.5-61-15.3-87-33.1c-25.4-17.4-45.2-42-60.7-68.3 c-30.8-52.1-44.7-113.2-41.3-173.5c3.3-57.4,23.5-112.4,57.5-158.7c32.2-43.8,76.5-79.1,126.5-100.5c6.2-2.7,12.6-5,19-7.3 c9.4-3.2,5.8-17.8-3.3-15.7c-1.7-1.6-4.2-2.4-7.1-1.7c-22.2,5.4-47.5-0.9-63.6-17.5c-15.2-15.8-17.6-39.5-7.4-58.6 c5.5-10.2,14.1-18.3,25.4-21.6c0.1,0,0.2-0.1,0.2-0.1c2.1-0.4,4-1.6,5.2-3.7c0.6-1.1,1-2.4,1-3.7c43.7-9.5,88.7-15.4,133.2-9.3 c12.2,1.7,24.4,6,36.7,6.2c12.7,0.2,21.2-7.4,31.4-13.7c18-11,38.7-17.8,59.6-19.6c23.7-2.1,47.8,1.4,69.5,11.2 c1.7,0.8,3.5,1.1,5.2,0.9c2.8,4.2,6.5,7.8,10.7,10.5c1.2,0.8,2.7,1.1,4.1,1.1c-0.4,1.2-0.9,2.4-1.4,3.6 c-2.3,5.9-5.2,11.8-5.3,18.3c0,6.9,3.2,12.9,7.1,18.3C1336.3,729.1,1341,735.3,1345.6,741.6z M1343.3,628.7c0,0.3-0.1,0.6-0.1,0.9 c-4.2,0.7-6.5,6-5.5,9.8c0.6,2.3,2,3.8,3.8,4.8c-1.3,8.2-3.2,16.3-5.5,24.2c-0.3-0.2-0.5-0.4-0.8-0.6c-0.1-0.1-0.7-0.4-1-0.7 c-0.2-0.2-0.6-0.5-0.7-0.5c-0.9-0.8-1.8-1.7-2.6-2.7c-0.1-0.1-0.1-0.1-0.2-0.2c-0.4-0.5-0.7-1-1-1.5c-0.7-1.1-1.2-2.2-1.8-3.3 c-1.6-3.6-6.9-4.9-10.3-3.2c-40.8-17.9-87.8-17.4-128.5,1c-4.8,2.2-9.4,4.6-13.9,7.3c-5.2,3.1-9.9,7.1-15.2,10 c-5.2,2.8-10.6,2.6-16.2,1.6c-6.7-1.2-13.3-2.9-20.1-4c-26.2-4.3-52.8-4.7-79.2-2.4c-26.9,2.4-53.4,7.3-79.7,13.4 c-23-11-45.7-23.2-64.5-40.4c-22.8-20.8-39.2-49.8-40.9-81.1c-0.8-14.9,2.3-29.6,11.8-41.4c8.7-10.7,20.5-18.3,32.7-24.4 c28.4-14.2,60.5-22.7,92-26.3c36.8-4.1,74.1-1.6,110,7.9c5.4,1.4,9.2-2.5,9.8-6.8c0.3-0.1,0.6-0.1,0.9-0.3 c43.9-16.8,93.7-31.7,139.8-15.4c0.9,1.6,2.4,2.9,4.6,3.5c11.2,3.3,22.3,6.5,33.5,9.8c1.7,0.5,3.3,0.4,4.6,0 c13.8,25.9,25,53.2,33.3,81.4C1340.1,574.9,1345.1,601.7,1343.3,628.7z M1323.1,479.8c-2.9-6.3-6-12.5-9.3-18.6 c19.8-4,39.8-7.1,60-6.7c12.3,0.3,24.5,2,36.3,5.7c9.8,3.1,19.5,8,24.5,17.4c5.1,9.6,6.6,21.8,7.2,32.5 c0.5,11.3-0.5,22.6-3.2,33.7c-5.2,21.1-16.2,40.2-31.9,55.2c-13.4,12.7-29.6,21.8-47.2,27c1-19.3-1.1-38.7-5.1-57.9 c12.9-6.3,23.6-16.6,31-28.9c9.2,5.9,20.8,7.7,31.5,4.5c9.2-2.7,5.3-17.2-4-14.5c-7.5,2.2-15.1,0.7-21-3.9 c3.7-10.3,5.2-21.3,4.1-32.3c-0.4-4-3.1-7.5-7.5-7.5c-3.7,0-7.9,3.4-7.5,7.5c2.6,24.2-9.5,47.8-30.2,60 C1343.9,527.6,1334,502.8,1323.1,479.8z M1283.7,404.5c32.9,0.7,66,2.4,98.7,6.3c30.2,3.6,64.7,13.1,81.1,41.2 c8.3,14.3,9.9,32.2,11.1,48.4c1.3,17.5,0.8,35.3-3.6,52.4c-7.2,28.2-25.3,51-47.6,69.1c-21,17-45.1,29.9-69.4,41.6 c1.6-6.7,2.9-13.6,3.9-20.5c44.9-10.7,82.1-45.6,94.9-90.2c6.9-23.9,7.7-51.8-0.9-75.4c-9.7-26.6-37.8-35-63.6-38 c-27.6-3.2-55.4,1.5-82.5,7.1c-7.2-12.6-15.1-24.8-23.5-36.6C1283.3,408.3,1283.9,406.4,1283.7,404.5z M705.6,1251.2 c-13.8-24.8-23.7-51.7-28.6-79.7c-5.6-32-3.4-64.4,3.3-96c7.9-36.8,20.7-72.2,30.2-108.6c9.7-37,15.3-75,17.7-113.1 c4.8-77.2-3.7-154.7-16.9-230.8c-3.2-18.5-6.7-37-10.4-55.4c-2-10.1-17.4-5.8-15.4,4.3c10.3,51.5,19.2,103.5,24.1,155.8 c-3.6,2.1-7.2,4.1-10.7,6.2c-3.4,2-4.3,5.2-3.7,8.2c-47.2,25.2-104.1,28-154.5,10.6c-49.2-17.1-92.1-53.1-118.8-97.6 c-13.5-22.6-22.8-48-23.6-74.4c-0.7-23.4,4.6-47,15.1-68c10.7-21.5,26.5-40.6,46.5-54c21.6-14.5,46.5-22.5,72.1-26.4 c29.5-4.5,59.8-3.3,89.5-0.9c15.4,1.3,30.8,2.7,46.1,4.8c15,2,29.9,5.2,43,13c-2,1.3-4.1,2.5-6.1,3.8c-8.7,5.5-0.7,19.3,8.1,13.8 c38.1-24,77-46.5,116.9-67.4c39-20.5,78.8-40.5,120-56.5c37.8-14.7,77.1-24.6,117.9-24c35.9,0.5,71.6,8.2,104.7,22.2 c35.2,14.9,67.1,36.9,93.2,64.7c-1.3,2.4-1.6,5.5,0.1,7.8c8.5,11.6,16.4,23.6,23.7,36c-6.5-1.9-12.9-3.8-19.4-5.7 c-1.1-1.3-2.5-2.3-4.2-3c-49.8-20-105-4.6-152.9,13.7c-2.9,1.1-5.1,3.4-5.7,6.2c-67.6-17-141-11.1-204.6,17.9 c-13.7,6.2-27,14.1-37.7,24.9c-11.8,12-18.8,26.9-20.6,43.6c-3.7,34.2,11.7,69.9,34,95.1c20,22.5,46.2,38.1,73,51.4 c0.2,1.1,0.6,2.1,1.2,3c-16.2,12.3-25.6,32.8-25.5,53.4c0,29.8,21.2,53.6,48.3,63.6c5,1.8,10.1,3.2,15.4,4 c-40.2,19.7-76.2,47.8-105.1,82.1c-38.8,46.2-63.8,102.1-71.7,161.9c-8.2,62.9,2.6,128.1,30.7,185c14.2,28.7,33,56.1,56.9,77.7 c24.7,22.2,54.7,36.7,86.6,45.2c33,8.8,67.6,12,101.6,12.3c36.3,0.3,72.7-3.4,108.3-10.9c6.2-1.3,12.4-2.8,18.6-4.3 c1.4,0.6,3,0.8,4.9,0.4c79-16.7,158.8-42.1,221-95.7c5.8-5,11.3-10.2,16.7-15.7c-10.5,15.3-22.7,29.4-36.6,42.1 c-50.9,46.4-118.2,71.3-183,91.2c-70.5,21.7-144,35.9-218,34.5c-67-1.2-134.4-15.7-192.7-49.5 C777.7,1344.6,734,1302.4,705.6,1251.2z M1308.3,1533.1c1.5,28.7,3.2,58.2-3,86.5c-5.5,25.1-17.8,47.2-36.6,64.7 c-36.4,33.8-87.8,47.4-135.4,56.1c-60.9,11.2-124.6,13.6-185.2-0.6c-51.5-12.1-100.8-36.3-138.9-73.4 c-42.2-41.2-62.5-99.3-104.3-140.7c8.9-9.4,17.1-19.6,23.6-30.8c13.2-22.5,18-48.2,21.6-73.7c3.5-24.2,6.1-49.3,16.1-71.8 c7.7,6.6,15.6,12.9,23.8,18.8c54.4,39.4,118.6,60.8,185.1,68.3c75,8.4,151.2-1.2,224-19.7c9.5-2.4,19-5,28.5-7.7 c0.2,1.8,1,3.6,2.2,5.2c13.1,16.9,20,36.7,28.4,56.1c8,18.5,18.5,35.1,35.2,46.9c5.5,3.9,11.4,7.1,17.4,9.9 C1309.2,1528.2,1308.1,1530.2,1308.3,1533.1z M1470,1743.9c-17.2-16-33.9-32.6-47.6-51.8c-14.1-19.8-25.5-41.5-33.6-64.4 c-8.9-25.2-13.9-51.5-14.7-78.2c8.8,3.6,17.3,7.7,25.6,12.6c69.2,40.9,109.5,115.8,130.6,191.1c6.6,23.4,11.6,47.2,15.8,71.1 C1525.9,1793.5,1496.9,1768.9,1470,1743.9z"/> <path d="M1299.9,726c-1.6-17-15-32.6-32.2-35.2c-4.3-0.6-8.6,1.1-9.8,5.6c-0.2,0.7-0.3,1.5-0.2,2.3c-11-0.7-22,9-25.6,19.2 c-4.5,12.5-0.7,27.7,8.6,37C1262.5,776.8,1302.7,756,1299.9,726z M1265.4,748c-9.9,1.2-17.5-6-19-15.4c-0.7-4.1-0.2-8.6,1.9-12.2 c2.2-3.6,6.7-7.2,10.6-4.3c3.5,2.6,8.9,0.6,10.9-2.9c0.9-1.5,1.2-3.1,1.1-4.6c7.5,3.8,13.1,11.2,13.1,20 C1284,738.8,1275,746.8,1265.4,748z"/> <path d="M1093,728.5c0,0-0.1,0-0.1,0c0.5-4.3-2.1-8.9-7.7-8.7c-14.8,0.5-28.6,9.6-34.7,23.2c-6.4,14.2-3.3,30.1,7.4,41.4 c10.2,10.7,26.4,15.4,40.4,9.9c14-5.5,24.3-18.8,25.5-33.9C1125,742.7,1111.2,726,1093,728.5z M1105.8,766.7 c-4.6,9.9-15.6,16.3-26.3,12.9c-9.8-3-17.9-13.5-16.4-24c1.5-10.7,11.4-19.5,22.1-19.9c0.7,0,1.4-0.1,2-0.3c-0.1,1-0.1,2,0.2,2.9 c1.3,4.6,5.5,6.2,9.8,5.6c4.1-0.6,7.9,4.5,9.3,7.7C1108.7,756.4,1108,762,1105.8,766.7z"/> <path d="M1487.1,1074c-1.1-15.9-4.6-31.4-10.7-46.2c-1-2.3-2.6-4.2-4.7-5.2c0.4-2.2,0.7-4.4,1-6.6c0.5-4.3-4-8-8-8 c-4.7,0-7.5,3.7-8,8c-4.7,41.5-36.8,73.6-70.7,94.5c-34.3,21.2-73.8,34.1-113.5,40.5c-77.8,12.6-160.1-1.4-230-37.6 c-39.9-20.6-75.6-48.5-104.7-82.8c-6.7-7.9-17.9,3.5-11.3,11.3c14.6,17.1,30.8,32.7,48.4,46.7c-3.1,0.4-5.5,2.8-6.7,5.8 c-4.1,10.2-8.3,20.4-12.4,30.5c-3.7,9.1-7.8,18.3-10.2,27.9c-4,16.4-1.9,34.7,11.8,45.9c11,9,25.7,12.3,39.7,10.7 c15.8-1.8,29.3-9.8,40-21.5c12.4-13.5,20.3-30.1,27.6-46.7c23.8,9.9,48.5,17.4,73.7,22.4c-11,28.9-10,64.3,18.4,82.9 c12.1,7.9,27.4,10.2,40.9,4.6c13.7-5.7,23.2-17.8,29.6-30.8c7.8-15.6,12.8-32.8,16.1-49.9c26.2-1.8,52.2-6.4,77.2-13.8 c2.3,25.1,13.8,52.5,41.4,57.3c28.8,5,49.2-22.4,53.6-48c2.9-16.6,0.6-33.1-6.7-48.3c-0.4-0.9-1-1.7-1.6-2.3 c8-5.7,15.6-12,22.6-18.8c2.1,8.2,5.7,16.4,12.2,21.8c10.7,8.9,26,6.8,35.2-3.3C1487.5,1104.2,1488,1088.2,1487.1,1074z M1002.2,1192.4c-10.1,2.8-21.8,2.2-30.9-3.2c-11.6-6.8-13.3-19.7-10.3-32c2.4-9.9,6.7-19.3,10.6-28.8c4-9.9,8-19.8,12-29.6 c0.4-1,0.5-2.1,0.3-3.1c20.6,15.3,42.9,28.5,66.2,39.3C1040.3,1157.7,1027.4,1185.6,1002.2,1192.4z M1213.5,1212.4 c-5.9,11.8-15.3,25.2-29.8,26c-13.8,0.8-26.6-9-32.2-21.1c-7.1-15.4-4.2-34.2,2.3-49.3c0.2-0.5,0.4-0.9,0.5-1.4 c23.9,3.8,48.3,5.4,72.7,4.7C1224,1185.4,1219.8,1199.6,1213.5,1212.4z M1379.2,1196c-10.9,5.9-23.2,0.9-31.1-7.6 c-9-9.8-11.4-23.9-11.9-36.8c17-6,33.5-13.4,49.3-22.2c3-1.7,6-3.5,9-5.3c0.1,0.6,0.3,1.2,0.6,1.7 C1405.5,1147.7,1402.7,1183.2,1379.2,1196z M1468.9,1099.2c-2.7,6.4-10.5,12.5-16.8,6.8c-5.7-5.1-7.2-14.5-8.4-21.6 c-0.1-0.6-0.3-1.2-0.6-1.8c9.4-11.4,17.2-24,22.5-37.8c2.2,6.9,3.8,14,4.8,21.2C1471.7,1076.4,1473.1,1089.3,1468.9,1099.2z"/> <path d="M1230.9,811.3c-5.6-8.6-19.5-0.6-13.8,8.1c20.9,31.8,31,69.3,29.1,107.2c-0.5,10.3,15.5,10.3,16,0 C1264.3,886.1,1253.2,845.2,1230.9,811.3z"/> <path d="M1050.3,514.3c1.1-4.4-1.6-8.1-5.6-9.7c-25.9-9.8-57.2-7.4-79.5,9.7c-20.7,15.9-30.7,44.8-23.1,70 c8.5,28,38.3,43.9,66.6,40.4c26.3-3.2,51-21,58.7-47C1074,555.7,1066.9,530.2,1050.3,514.3z M1053.4,567.3 c-2.9,20.2-20.1,35.5-39.3,40.4c-20.6,5.3-46-2.7-55-23.2c-7.9-17.8-2.3-40.6,11.5-53.9c14.7-14.1,35.9-18,55.4-14.5 c0.7,1,1.6,1.9,2.9,2.5C1046.5,527.6,1056.2,548,1053.4,567.3z"/> <path d="M1272.2,534c-1.9-25.6-18.6-47.9-41.6-56.3c-0.9-1.3-2.2-2.4-4.1-3c-27.7-9.8-59.7,0-77.2,23.4c-17,22.7-17.9,56-1.3,79.1 c17.3,24.1,48,35.1,76.5,26C1253.9,593.8,1274.5,564.9,1272.2,534z M1226.4,585.4c-20.7,9.8-45.2,4.8-60.7-11.8 c-15.1-16.2-17.8-40.6-7.3-60c8.3-15.4,23.7-24.7,40.3-26.4c1.2,1.9,3.4,3.2,6.5,3c23.7-2,44.5,13.6,49.9,36.6 C1260.7,550.4,1248.1,575.1,1226.4,585.4z"/> <path d="M1043.1,539.7c-2-3.4-7.4-5.5-10.9-2.9c-8.9,6.6-18.1,13.7-28.8,17c-8.3,2.6-18.8,2.9-26-2.8c-3.4-2.7-8-3.3-11.3,0 c-2.8,2.8-3.4,8.6,0,11.3c10.7,8.6,23.9,10.8,37.2,8.1c13.9-2.9,25.8-11.4,36.9-19.7C1043.7,548.1,1045.5,543.7,1043.1,539.7z"/> <path d="M1231.8,514.9c-2.4-4.1-7-4.6-10.9-2.9c-13.3,5.6-29,4.9-41.8-1.4c-9.2-4.5-17.3,9.3-8.1,13.8c18.5,9.1,39,9.5,58,1.4 C1232.9,524.1,1233.7,518.2,1231.8,514.9z"/> <g> <rect fill="none" width="2000" height="2000"/> </g> </g> </g> </svg>